<?xml version="1.0" encoding="UTF-8" standalone="no"?>
<!DOCTYPE svg PUBLIC "-//W3C//DTD SVG 1.1//EN" "http://www.w3.org/Graphics/SVG/1.1/DTD/svg11.dtd">
<svg xmlns="http://www.w3.org/2000/svg" xmlns:xlink="http://www.w3.org/1999/xlink" version="1.1" width="1224pt" height="792pt" viewBox="0 0 1224 792">
<g enable-background="new">
<g id="Layer-1" data-name="Layer 1">
<path transform="matrix(1,0,0,-1,0,792)" d="M 0 0 L 1224 0 L 1224 792 L 0 792 Z " fill="#ffffff"/>
<symbol id="font_0_f">
<path d="M 0 0 L .12900001 0 L .12900001 .409 C .12900001 .45100004 .12200001 .51900008 .12200001 .51900008 L .12400001 .51900008 C .12400001 .51900008 .156 .45000003 .183 .409 L .45200006 0 L .58000007 0 L .58000007 .71000006 L .45200006 .71000006 L .45200006 .3 C .45200006 .25800003 .45900003 .19000001 .45900003 .19000001 L .45700006 .19000001 C .45700006 .19000001 .42500005 .259 .39800004 .3 L .12900001 .71000006 L 0 .71000006 L 0 0 Z "/>
</symbol>
<symbol id="font_0_14">
<path d="M 0 .159 C 0 .057000005 .082 0 .17300001 0 C .289 0 .329 .09 .328 .09 L .33 .09 C .33 .09 .328 .074 .328 .054000006 L .328 .012 L .44500003 .012 L .44500003 .331 C .44500003 .46 .367 .53400006 .23300003 .53400006 C .11200001 .53400006 .033 .47100003 .033 .47100003 L .081 .38000003 C .081 .38000003 .14800002 .42900003 .22100002 .42900003 C .277 .42900003 .319 .40600003 .319 .33900003 L .319 .33200003 L .30200003 .33200003 C .21900001 .33200003 0 .321 0 .159 M .128 .165 C .128 .236 .23300003 .245 .298 .245 L .32 .245 L .32 .23300001 C .32 .171 .272 .09900001 .20500002 .09900001 C .15300001 .09900001 .128 .131 .128 .165 Z "/>
</symbol>
<symbol id="font_0_23">
<path d="M .06600001 .192 C .06600001 .021000002 .20700002 0 .27800004 0 C .30200003 0 .31700004 .0030000003 .31700004 .0030000003 L .31700004 .11400001 C .31700004 .11400001 .30800004 .11200001 .29400004 .11200001 C .25900004 .11200001 .19300002 .124000009 .19300002 .208 L .19300002 .40600003 L .30900003 .40600003 L .30900003 .507 L .19300002 .507 L .19300002 .65400007 L .069000009 .65400007 L .069000009 .507 L 0 .507 L 0 .40600003 L .06600001 .40600003 L .06600001 .192 Z "/>
</symbol>
<symbol id="font_0_1b">
<path d="M 0 .597 L .12600002 .597 L .12600002 .71000006 L 0 .71000006 L 0 .597 M 0 0 L .127 0 L .127 .51000007 L 0 .51000007 L 0 0 Z "/>
</symbol>
<symbol id="font_0_20">
<path d="M 0 .26700003 C 0 .11000001 .125 0 .28100003 0 C .43600003 0 .56100007 .11000001 .56100007 .26700003 C .56100007 .423 .43600003 .53400006 .28 .53400006 C .125 .53400006 0 .423 0 .26700003 M .12900001 .26700003 C .12900001 .361 .198 .42600004 .28100003 .42600004 C .363 .42600004 .432 .361 .432 .26700003 C .432 .172 .363 .108 .28100003 .108 C .198 .108 .12900001 .172 .12900001 .26700003 Z "/>
</symbol>
<symbol id="font_0_1f">
<path d="M 0 0 L .127 0 L .127 .23400001 C .127 .25800003 .12900001 .28100003 .136 .30200003 C .155 .363 .20500002 .40600003 .27300004 .40600003 C .33800004 .40600003 .35400004 .36400003 .35400004 .30200003 L .35400004 0 L .48000003 0 L .48000003 .328 C .48000003 .46300004 .41600005 .522 .30300004 .522 C .20000002 .522 .14400003 .45900003 .122 .416 L .12000001 .416 C .12000001 .416 .122 .432 .122 .45100004 L .122 .51000007 L 0 .51000007 L 0 0 Z "/>
</symbol>
<symbol id="font_0_1d">
<path d="M 0 .164 C 0 .018000002 .087000008 0 .157 0 C .178 0 .19700003 .0030000003 .19700003 .0030000003 L .19700003 .11400001 C .19700003 .11400001 .18800003 .113000009 .178 .113000009 C .14500001 .113000009 .12600002 .127 .12600002 .183 L .12600002 .71500006 L 0 .71500006 L 0 .164 Z "/>
</symbol>
<symbol id="font_0_1">
<path d="M 0 0 Z "/>
</symbol>
<symbol id="font_0_9">
<path d="M 0 0 L .24200002 0 C .461 0 .604 .132 .604 .356 C .604 .58000007 .461 .71000006 .24200002 .71000006 L 0 .71000006 L 0 0 M .12900001 .11100001 L .12900001 .59900006 L .23500002 .59900006 C .377 .59900006 .47100006 .514 .47100006 .356 C .47100006 .19600001 .379 .11100001 .23500002 .11100001 L .12900001 .11100001 Z "/>
</symbol>
<symbol id="font_0_18">
<path d="M 0 .26700003 C 0 .12200001 .10500001 0 .27400003 0 C .40100003 0 .479 .07300001 .479 .07300001 L .43 .164 C .43 .164 .365 .108 .283 .108 C .20700002 .108 .13800001 .154 .13 .243 L .48200003 .243 C .48200003 .243 .48500005 .277 .48500005 .292 C .48500005 .42700003 .40600003 .53400006 .259 .53400006 C .107 .53400006 0 .42400003 0 .26700003 M .134 .33 C .146 .396 .19100002 .43600003 .256 .43600003 C .312 .43600003 .35500003 .39900003 .35700003 .33 L .134 .33 Z "/>
</symbol>
<symbol id="font_0_22">
<path d="M 0 .075 C 0 .075 .071 0 .19800002 0 C .319 0 .393 .068 .393 .153 C .393 .317 .14500001 .308 .14500001 .38000003 C .14500001 .412 .17700002 .42600004 .21000003 .42600004 C .28800003 .42600004 .335 .382 .335 .382 L .382 .476 C .382 .476 .326 .53400006 .21100001 .53400006 C .101 .53400006 .016 .479 .016 .384 C .016 .22 .264 .23 .264 .154 C .264 .124000009 .23300003 .108 .19700001 .108 C .114 .108 .058 .164 .058 .164 L 0 .075 Z "/>
</symbol>
<symbol id="font_0_19">
<path d="M .08600001 .141 L .048000006 .044 C .097 .018000007 .165 0 .22900002 0 C .36200003 0 .49800004 .066 .49800004 .24100001 L .49800004 .72 L .379 .72 L .379 .681 C .379 .67300006 .38 .66700008 .38 .66700008 L .377 .66700008 C .377 .66700008 .337 .732 .22600003 .732 C .078999999 .732 0 .61800006 0 .47800002 C 0 .338 .083000008 .22000002 .22900002 .22000002 C .297 .22000002 .341 .24400002 .371 .289 L .373 .289 C .373 .289 .371 .27400003 .371 .26200003 L .371 .23200001 C .371 .141 .305 .108 .22700002 .108 C .15 .108 .08600001 .141 .08600001 .141 M .256 .32700003 C .17400001 .32700003 .128 .393 .128 .48200003 C .128 .568 .17100002 .6240001 .24800001 .6240001 C .317 .6240001 .374 .59300008 .374 .47700004 C .374 .36200003 .317 .32700003 .256 .32700003 Z "/>
</symbol>
<symbol id="font_0_e">
<path d="M 0 0 L .12900001 0 L .15900001 .397 C .162 .44400005 .16000001 .508 .16000001 .508 L .162 .508 C .162 .508 .184 .43800003 .20100002 .397 L .315 .12200001 L .42800004 .12200001 L .543 .397 C .56 .43800003 .58100005 .507 .58100005 .507 L .583 .507 C .583 .507 .58100005 .44400005 .584 .397 L .614 0 L .74200007 0 L .685 .71000006 L .547 .71000006 L .408 .35900004 C .39200003 .317 .37300004 .25500003 .37300004 .25500003 L .371 .25500003 C .371 .25500003 .351 .317 .33500005 .35900004 L .196 .71000006 L .058 .71000006 L 0 0 Z "/>
</symbol>
<symbol id="font_0_24">
<path d="M 0 .194 C 0 .055 .06800001 0 .17700002 0 C .26400004 0 .32900004 .053000004 .35400004 .106000009 L .35600005 .106000009 C .35600005 .106000009 .35400004 .09 .35400004 .07 L .35400004 .012 L .47600005 .012 L .47600005 .5220001 L .34900005 .5220001 L .34900005 .28800003 C .34900005 .197 .29800005 .116000007 .20600003 .116000007 C .143 .116000007 .127 .158 .127 .22 L .127 .5220001 L 0 .5220001 L 0 .194 Z "/>
</symbol>
<symbol id="font_0_1e">
<path d="M 0 0 L .127 0 L .127 .224 C .127 .24700001 .12800002 .27 .13300002 .289 C .14900002 .354 .19200003 .40600003 .25800003 .40600003 C .31800003 .40600003 .32700003 .35900004 .32700003 .30400003 L .32700003 0 L .45400007 0 L .45400007 .224 C .45400007 .24800001 .45500005 .27 .46000005 .29000003 C .47500003 .354 .518 .40600003 .58300009 .40600003 C .642 .40600003 .65300008 .36200003 .65300008 .30400003 L .65300008 0 L .78000006 0 L .78000006 .328 C .78000006 .462 .71900007 .522 .61300006 .522 C .53300008 .522 .467 .47200004 .439 .41700004 L .43700005 .41700004 C .41600005 .48600004 .36600004 .522 .28800003 .522 C .20800004 .522 .14700002 .46600003 .122 .416 L .12000001 .416 C .12000001 .416 .122 .432 .122 .45100004 L .122 .51000007 L 0 .51000007 L 0 0 Z "/>
</symbol>
<use xlink:href="#font_0_f" transform="matrix(93.5001,0,0,-92.724,121.382808,550.36819)" fill="#f8cc53"/>
<use xlink:href="#font_0_14" transform="matrix(93.5001,0,0,-92.724,186.55239,551.48086)" fill="#f8cc53"/>
<use xlink:href="#font_0_23" transform="matrix(93.5001,0,0,-92.724,236.10744,550.8318)" fill="#f8cc53"/>
<use xlink:href="#font_0_1b" transform="matrix(93.5001,0,0,-92.724,275.47099,550.36819)" fill="#f8cc53"/>
<use xlink:href="#font_0_20" transform="matrix(93.5001,0,0,-92.724,296.8825,551.48086)" fill="#f8cc53"/>
<use xlink:href="#font_0_1f" transform="matrix(93.5001,0,0,-92.724,358.87309,550.36819)" fill="#f8cc53"/>
<use xlink:href="#font_0_14" transform="matrix(93.5001,0,0,-92.724,412.16813,551.48086)" fill="#f8cc53"/>
<use xlink:href="#font_0_1d" transform="matrix(93.5001,0,0,-92.724,465.46318,550.8318)" fill="#f8cc53"/>
<use xlink:href="#font_0_1" transform="matrix(93.5001,0,0,-92.724,486.12669,550.36819)" fill="#f8cc53"/>
<use xlink:href="#font_0_9" transform="matrix(93.5001,0,0,-92.724,517.2622,550.36819)" fill="#f8cc53"/>
<use xlink:href="#font_0_18" transform="matrix(93.5001,0,0,-92.724,581.1228,551.48086)" fill="#f8cc53"/>
<use xlink:href="#font_0_22" transform="matrix(93.5001,0,0,-92.724,632.26736,551.48086)" fill="#f8cc53"/>
<use xlink:href="#font_0_1b" transform="matrix(93.5001,0,0,-92.724,678.54989,550.36819)" fill="#f8cc53"/>
<use xlink:href="#font_0_19" transform="matrix(93.5001,0,0,-92.724,700.33547,569.8402)" fill="#f8cc53"/>
<use xlink:href="#font_0_1f" transform="matrix(93.5001,0,0,-92.724,759.98849,550.36819)" fill="#f8cc53"/>
<use xlink:href="#font_0_1" transform="matrix(93.5001,0,0,-92.724,810.75906,550.36819)" fill="#f8cc53"/>
<use xlink:href="#font_0_e" transform="matrix(93.5001,0,0,-92.724,839.8376,550.36819)" fill="#f8cc53"/>
<use xlink:href="#font_0_24" transform="matrix(93.5001,0,0,-92.724,921.46316,551.48086)" fill="#f8cc53"/>
<use xlink:href="#font_0_22" transform="matrix(93.5001,0,0,-92.724,975.0387,551.48086)" fill="#f8cc53"/>
<use xlink:href="#font_0_18" transform="matrix(93.5001,0,0,-92.724,1017.95529,551.48086)" fill="#f8cc53"/>
<use xlink:href="#font_0_24" transform="matrix(93.5001,0,0,-92.724,1072.4658,551.48086)" fill="#f8cc53"/>
<use xlink:href="#font_0_1e" transform="matrix(93.5001,0,0,-92.724,1130.0619,550.36819)" fill="#f8cc53"/>
<clipPath id="cp1">
<path transform="matrix(1,0,0,-1,0,792)" d="M 0 792 L 1224 792 L 1224 0 L 0 0 Z "/>
</clipPath>
<g clip-path="url(#cp1)">
<path transform="matrix(1,0,0,-1,-.189,-.17626953)" d="M 0 0 L 87.376 0 L 185.12 -217.301 C 198.942 -247.879 214.739 -296.674 214.739 -296.674 L 215.726 -296.674 C 215.726 -296.674 211.777 -246.578 211.777 -217.301 L 211.777 0 L 298.167 0 L 298.167 -465.18 L 211.283 -465.18 L 113.047 -248.53 C 99.224 -217.952 83.427 -169.156 83.427 -169.156 L 82.44 -169.156 C 82.44 -169.156 86.389 -219.253 86.389 -248.53 L 86.389 -465.18 L 0 -465.18 Z " fill="#f8cc53"/>
<path transform="matrix(1,0,0,-1,541.3359,368.7148)" d="M 0 0 C 52.821 0 95.274 59.855 95.274 139.229 C 95.274 215.349 52.821 272.602 0 272.602 C -52.821 272.602 -95.275 215.349 -95.275 139.229 C -95.275 59.855 -52.821 0 0 0 M 0 376.698 C 106.629 376.698 184.626 272.602 184.626 139.229 C 184.626 2.602 106.629 -104.096 0 -104.096 C -106.629 -104.096 -184.626 2.602 -184.626 139.229 C -184.626 272.602 -106.629 376.698 0 376.698 " fill="#f8cc53"/>
<path transform="matrix(1,0,0,-1,752.1201,-.17626953)" d="M 0 0 L 90.832 0 L 135.261 -290.819 C 139.704 -319.445 139.704 -339.614 139.704 -339.614 L 140.691 -339.614 C 140.691 -339.614 141.184 -319.445 146.614 -290.819 L 200.916 0 L 270.521 0 L 323.343 -290.819 C 328.772 -319.445 329.267 -339.614 329.267 -339.614 L 330.254 -339.614 C 330.254 -339.614 330.254 -319.445 334.697 -290.819 L 383.074 0 L 472.426 0 L 383.074 -465.18 L 286.812 -465.18 L 242.384 -230.313 C 236.953 -200.385 235.473 -175.663 235.473 -175.663 L 234.485 -175.663 C 234.485 -175.663 233.004 -200.385 227.573 -230.313 L 183.145 -465.18 L 85.896 -465.18 Z " fill="#f8cc53"/>
<path transform="matrix(1,0,0,-1,83.4429,189.00049)" d="M 0 0 C 40.789 0 65.734 24.114 65.734 69.999 C 65.734 115.549 39.778 138.994 0 138.994 L -24.271 138.994 L -24.271 0 Z M -83.263 189.233 L 2.36 189.233 C 78.207 189.233 126.749 145.357 126.749 69.999 C 126.749 -5.36 78.207 -50.239 2.36 -50.239 L -83.263 -50.239 Z " fill="#dd1a5c"/>
<path transform="matrix(1,0,0,-1,251.6465,-.23242188)" d="M 0 0 L 151.02 0 L 151.02 -50.239 L 58.992 -50.239 L 58.992 -93.779 L 132.479 -93.779 L 132.479 -144.018 L 58.992 -144.018 L 58.992 -189.233 L 155.739 -189.233 L 155.739 -239.472 L 0 -239.472 Z " fill="#dd1a5c"/>
<path transform="matrix(1,0,0,-1,463.0029,164.55127)" d="M 0 0 C 0 0 27.305 -24.785 57.644 -24.785 C 69.779 -24.785 82.926 -20.095 82.926 -5.694 C 82.926 22.775 -25.62 21.77 -25.62 95.454 C -25.62 139.665 11.798 168.802 59.666 168.802 C 111.58 168.802 137.199 141.673 137.199 141.673 L 112.254 93.78 C 112.254 93.78 87.983 114.879 58.992 114.879 C 46.856 114.879 33.373 109.521 33.373 96.124 C 33.373 65.98 141.918 71.339 141.918 -4.354 C 141.918 -44.21 111.243 -78.708 56.97 -78.708 C .337 -78.708 -31.013 -44.545 -31.013 -44.545 Z " fill="#dd1a5c"/>
<path transform="matrix(1,0,0,-1,0,792)" d="M 645.366 792.232 L 704.35708 792.232 L 704.35708 552.76 L 645.366 552.76 Z " fill="#dd1a5c"/>
<path transform="matrix(1,0,0,-1,871.2148,-4.2509768)" d="M 0 0 C 61.689 0 92.702 -31.818 92.702 -31.818 L 64.386 -75.693 C 64.386 -75.693 39.778 -53.587 5.731 -53.587 C -44.834 -53.587 -65.396 -85.741 -65.396 -121.243 C -65.396 -166.792 -33.709 -193.921 3.708 -193.921 C 32.024 -193.921 52.588 -176.506 52.588 -176.506 L 52.588 -158.085 L 18.541 -158.085 L 18.541 -108.181 L 104.838 -108.181 L 104.838 -243.491 L 55.621 -243.491 L 55.621 -236.792 C 55.621 -231.768 55.958 -226.745 55.958 -226.745 L 55.285 -226.745 C 55.285 -226.745 32.024 -247.51 -8.09 -247.51 C -69.779 -247.51 -126.411 -201.625 -126.411 -123.253 C -126.411 -53.587 -73.487 0 0 0 " fill="#dd1a5c"/>
<path transform="matrix(1,0,0,-1,1020.541,-.23242188)" d="M 0 0 L 59.667 0 L 126.413 -111.866 C 135.851 -127.607 146.639 -152.727 146.639 -152.727 L 147.312 -152.727 C 147.312 -152.727 144.615 -126.937 144.615 -111.866 L 144.615 0 L 203.608 0 L 203.608 -239.472 L 144.279 -239.472 L 77.196 -127.941 C 67.758 -112.2 56.97 -87.081 56.97 -87.081 L 56.297 -87.081 C 56.297 -87.081 58.993 -112.87 58.993 -127.941 L 58.993 -239.472 L 0 -239.472 Z " fill="#dd1a5c"/>
<path transform="matrix(1,0,0,-1,102.5806,265.39894)" d="M 0 0 C 47.853 0 72.456 -27.234 72.456 -27.234 L 50.557 -62.827 C 50.557 -62.827 28.928 -43.143 2.163 -43.143 C -34.876 -43.143 -52.449 -70.377 -52.449 -98.15 C -52.449 -126.733 -33.524 -156.125 2.163 -156.125 C 31.361 -156.125 53.531 -132.395 53.531 -132.395 L 77.863 -166.91 C 77.863 -166.91 50.557 -199.267 0 -199.267 C -60.56 -199.267 -101.384 -156.394 -101.384 -99.229 C -101.384 -43.143 -58.127 0 0 0 " fill="#dd1a5c"/>
<path transform="matrix(1,0,0,-1,206.3901,268.63429)" d="M 0 0 L 47.313 0 L 47.313 -121.879 C 47.313 -142.103 60.56 -152.889 80.836 -152.889 C 101.113 -152.889 114.361 -142.103 114.361 -121.879 L 114.361 0 L 161.673 0 L 161.673 -121.879 C 161.673 -165.292 129.771 -196.032 81.106 -196.032 C 31.902 -196.032 0 -165.292 0 -121.879 Z " fill="#dd1a5c"/>
<path transform="matrix(1,0,0,-1,410.7715,268.63429)" d="M 0 0 L 47.312 0 L 47.312 -152.35 L 126.256 -152.35 L 126.256 -192.796 L 0 -192.796 Z " fill="#dd1a5c"/>
<path transform="matrix(1,0,0,-1,586.501,309.0815)" d="M 0 0 L -58.667 0 L -58.667 40.447 L 105.979 40.447 L 105.979 0 L 47.313 0 L 47.313 -152.349 L 0 -152.349 Z " fill="#dd1a5c"/>
<path transform="matrix(1,0,0,-1,713.5625,268.63429)" d="M 0 0 L 47.312 0 L 47.312 -121.879 C 47.312 -142.103 60.56 -152.889 80.837 -152.889 C 101.113 -152.889 114.36 -142.103 114.36 -121.879 L 114.36 0 L 161.674 0 L 161.674 -121.879 C 161.674 -165.292 129.771 -196.032 81.106 -196.032 C 31.901 -196.032 0 -165.292 0 -121.879 Z " fill="#dd1a5c"/>
<path transform="matrix(1,0,0,-1,985.8037,355.999)" d="M 0 0 C 15.14 0 24.602 8.359 24.602 23.729 C 24.602 38.289 19.195 46.917 -4.596 46.917 L -20.547 46.917 L -20.547 0 Z M -67.859 87.365 L -.54 87.365 C 19.195 87.365 28.658 86.017 37.039 82.781 C 58.938 74.421 72.726 54.737 72.726 26.695 C 72.726 6.202 62.992 -16.179 43.797 -25.886 L 43.797 -26.425 C 43.797 -26.425 46.501 -29.931 51.098 -38.021 L 88.677 -105.432 L 35.958 -105.432 L 1.622 -40.447 L -20.547 -40.447 L -20.547 -105.432 L -67.859 -105.432 Z " fill="#dd1a5c"/>
<path transform="matrix(1,0,0,-1,1102.3262,268.63429)" d="M 0 0 L 121.12 0 L 121.12 -40.447 L 47.313 -40.447 L 47.313 -75.501 L 106.25 -75.501 L 106.25 -115.947 L 47.313 -115.947 L 47.313 -152.35 L 124.904 -152.35 L 124.904 -192.796 L 0 -192.796 Z " fill="#dd1a5c"/>
<path transform="matrix(1,0,0,-1,83.4902,189.00049)" d="M 0 0 L -24.188 0 L -24.188 138.994 L .083 138.994 C 10.757 138.994 20.424 137.289 28.874 133.938 L 4.008 189.219 C 3.486 189.223 2.967 189.233 2.442 189.233 L -83.181 189.233 L -83.181 -50.239 L 2.358 -50.239 C 2.058 -34.267 .953 -14.658 0 0 " fill="#ee8322"/>
<path transform="matrix(1,0,0,-1,179.541,204.4082)" d="M 0 0 L -31.33 69.652 C -36.214 36.238 -57.281 17.801 -89.437 15.636 C -84.534 1.537 -77.714 -17.297 -70.958 -33.397 C -41.578 -29.56 -17.403 -18.072 0 0 " fill="#ee8322"/>
<path transform="matrix(1,0,0,-1,0,792)" d="M 297.706 792.232 L 251.777 792.232 L 251.777 552.76 L 297.706 552.76 Z " fill="#ee8322"/>
<path transform="matrix(1,0,0,-1,522.7993,-4.2509768)" d="M 0 0 C -47.868 0 -85.286 -29.138 -85.286 -73.349 C -85.286 -103.268 -67.389 -120.873 -46.129 -133.137 C -30.632 -113.545 -10.396 -101.247 12.007 -99.306 C -8.873 -91.133 -26.293 -84.753 -26.293 -72.678 C -26.293 -59.282 -12.81 -53.923 -.674 -53.923 C 28.316 -53.923 52.587 -75.022 52.587 -75.022 L 77.533 -27.129 C 77.533 -27.129 51.913 0 0 0 " fill="#ee8322"/>
<path transform="matrix(1,0,0,-1,445.9355,220.5332)" d="M 0 0 C .525 13.917 2.479 27.138 5.661 39.412 L -13.816 11.437 C -13.816 11.437 -9.079 6.292 0 0 " fill="#ee8322"/>
<path transform="matrix(1,0,0,-1,850.9736,52.770998)" d="M 0 0 L -8.273 54.158 C -43.448 46.933 -71.814 26.472 -88.754 -1.886 L -58.116 -167.806 C -37.962 -182.605 -13.276 -190.488 12.281 -190.488 C 18.203 -190.488 23.746 -190.027 28.913 -189.256 L 20.903 -136.828 C -15.113 -135.335 -45.025 -108.475 -45.025 -64.221 C -45.025 -35.608 -31.654 -9.183 0 0 " fill="#ee8322"/>
<path transform="matrix(1,0,0,-1,923.7578,153.83399)" d="M 0 0 L .176 0 L .176 -18.421 C .176 -18.421 -1.312 -19.676 -4.016 -21.505 L -14.853 -79.545 C -3.34 -74.192 2.872 -68.66 2.872 -68.66 L 3.546 -68.66 C 3.546 -68.66 3.209 -73.683 3.209 -78.707 L 3.209 -85.406 L 52.426 -85.406 L 52.426 49.904 L 9.318 49.904 Z " fill="#ee8322"/>
<path transform="matrix(1,0,0,-1,949.3994,16.5083)" d="M 0 0 L -8.869 -47.497 L 14.647 -11.059 C 14.647 -11.059 9.745 -6.044 0 0 " fill="#ee8322"/>
<path transform="matrix(1,0,0,-1,1165.2871,-.23242188)" d="M 0 0 L 0 -111.866 C 0 -126.937 2.696 -152.727 2.696 -152.727 L 2.022 -152.727 C 2.022 -152.727 -8.765 -127.607 -18.203 -111.866 L -42.432 -71.259 L -55.231 -148.206 L -.337 -239.472 L 12.743 -239.472 L 58.74 0 Z " fill="#ee8322"/>
<path transform="matrix(1,0,0,-1,1022.6025,-.23242188)" d="M 0 0 L -1.931 0 L -1.931 -239.472 L 43.495 -239.472 Z " fill="#ee8322"/>
<path transform="matrix(1,0,0,-1,368.0698,316.6162)" d="M 0 0 L 0 47.982 L -9.396 47.982 C -7.433 31.312 -4.268 15.264 0 0 " fill="#ee8322"/>
<path transform="matrix(1,0,0,-1,692.4873,268.63429)" d="M 0 0 L -60.171 0 C -67.367 -36.127 -84.036 -65.355 -105.98 -82.386 L -105.98 -192.796 L -96.776 -192.796 C -83.259 -187.641 -70.509 -180.597 -58.668 -171.88 L -58.668 -40.447 L 0 -40.447 Z " fill="#ee8322"/>
<path transform="matrix(1,0,0,-1,971.7627,268.63429)" d="M 0 0 L -53.812 0 L -53.812 -192.796 L -36.471 -192.796 Z " fill="#ee8322"/>
<path transform="matrix(1,0,0,-1,1074.4863,461.4307)" d="M 0 0 L -37.579 67.411 C -42.175 75.5 -44.879 79.006 -44.879 79.006 L -44.879 79.545 C -25.684 89.253 -15.95 111.633 -15.95 132.126 C -15.95 160.169 -29.738 179.853 -51.638 188.212 C -57.26 190.383 -63.385 191.701 -72.756 192.335 L -36.373 0 Z " fill="#ee8322"/>
<path transform="matrix(1,0,0,-1,1149.6445,386.375)" d="M 0 0 L 0 1.793 L .345 1.793 L 8.113 42.24 L 0 42.24 L 0 77.293 L 14.847 77.293 L 22.616 117.741 L -47.312 117.741 L -47.312 -75.056 L -14.416 -75.056 Z " fill="#ee8322"/>
<path transform="matrix(1,0,0,-1,85.8042,418.3799)" d="M 0 0 C -23.395 8.305 -35.666 31.824 -35.666 54.831 C -35.666 77.348 -24.112 99.508 0 107.09 L 0 151.727 C -49.474 144.3 -84.601 104.289 -84.601 53.752 C -84.601 2.044 -51.196 -37.965 0 -45.133 Z " fill="#ee8322"/>
<path transform="matrix(1,0,0,-1,175.0425,292.6328)" d="M 0 0 C 0 0 -18.152 20.061 -53.567 25.739 L -27.871 -30.931 C -24.067 -33.622 -21.899 -35.593 -21.899 -35.593 Z " fill="#ee8322"/>
<path transform="matrix(1,0,0,-1,458.0898,298.1475)" d="M 0 0 C -3.569 9.173 -6.443 19.055 -8.526 29.513 L -47.312 29.513 L -47.312 -105.676 C -26.717 -132.203 -1.105 -152.152 28.079 -163.283 L 78.944 -163.283 L 78.944 -122.837 L 0 -122.837 Z " fill="#ee8322"/>
<path transform="matrix(1,0,0,-1,875.2422,390.5137)" d="M 0 0 L 0 121.879 L -47.313 121.879 L -47.313 0 C -47.313 -4.244 -47.903 -8.065 -49.013 -11.466 L -39.111 -65.088 C -14.608 -52.91 0 -29.362 0 0 " fill="#ee8322"/>
<path transform="matrix(1,0,0,-1,704.3643,114.33148)" d="M 0 0 C -13.889 34.217 -34.079 63.138 -58.991 84.391 L -58.991 -124.908 L 0 -124.908 Z " fill="#ee8322"/>
<path transform="matrix(1,0,0,-1,384.1318,99.40582)" d="M 0 0 C -6.677 -13.835 -12.253 -28.693 -16.624 -44.38 L 0 -44.38 Z " fill="#ee8322"/>
<path transform="matrix(1,0,0,-1,407.3921,189.00049)" d="M 0 0 L -48.764 0 C -50.282 -12.707 -51.079 -25.777 -51.079 -39.147 C -51.079 -42.869 -51.01 -46.563 -50.895 -50.239 L 0 -50.239 Z " fill="#ee8322"/>
<path transform="matrix(1,0,0,-1,297.582,420.4512)" d="M 0 0 C -3.192 -.709 -6.652 -1.072 -10.349 -1.072 C -30.625 -1.072 -43.873 9.714 -43.873 29.937 L -43.873 151.817 L -84.28 151.817 C -83.34 136.705 -82.44 125.291 -82.44 125.291 L -83.428 125.291 C -83.428 125.291 -86.53 134.871 -91.186 148.198 L -91.186 29.937 C -91.186 -8.949 -65.576 -37.649 -24.875 -43.215 L 0 -43.215 Z " fill="#ee8322"/>
</g>
<symbol id="font_0_a">
<path d="M 0 0 L .441 0 L .441 .11100001 L .12900001 .11100001 L .12900001 .30200003 L .36800004 .30200003 L .36800004 .41300003 L .12900001 .41300003 L .12900001 .59900006 L .42500005 .59900006 L .42500005 .71000006 L 0 .71000006 L 0 0 Z "/>
</symbol>
<symbol id="font_0_21">
<path d="M 0 0 L .127 0 L .127 .202 C .127 .23200001 .13 .26000003 .13800001 .28500004 C .162 .36100004 .22300002 .39200003 .277 .39200003 C .29400004 .39200003 .307 .39000003 .307 .39000003 L .307 .51500007 C .307 .51500007 .29600004 .517 .284 .517 C .20600003 .517 .14500001 .45900003 .122 .386 L .12000001 .386 C .12000001 .386 .122 .40300004 .122 .42200003 L .122 .51000007 L 0 .51000007 L 0 0 Z "/>
</symbol>
<symbol id="font_0_1c">
<path d="M 0 0 L .127 0 L .127 .223 L .19300002 .223 L .32800005 0 L .47400005 0 L .293 .28 L .293 .282 L .45400007 .51000007 L .31300003 .51000007 L .19000003 .33 L .127 .33 L .127 .71000006 L 0 .71000006 L 0 0 Z "/>
</symbol>
<symbol id="font_0_6">
<path d="M .50200006 0 L .63500007 0 L .38500003 .71000006 L .25000004 .71000006 L 0 0 L .133 0 L .193 .18200001 L .44200004 .18200001 L .50200006 0 M .31900005 .587 C .31900005 .587 .33400003 .517 .34700004 .47700004 L .41000004 .287 L .224 .287 L .28700004 .47700004 C .30100004 .517 .31700004 .587 .31700004 .587 L .31900005 .587 Z "/>
</symbol>
<symbol id="font_0_17">
<path d="M 0 .26700003 C 0 .109000008 .088 0 .22600001 0 C .34300003 0 .38600005 .087000008 .38600005 .087000008 L .388 .087000008 C .388 .087000008 .38600005 .07300001 .38600005 .054000006 L .38600005 .012 L .506 .012 L .506 .72200009 L .37900005 .72200009 L .37900005 .49800004 C .37900005 .48200003 .38000003 .469 .38000003 .469 L .37800003 .469 C .37800003 .469 .34300003 .53400006 .231 .53400006 C .096000019 .53400006 0 .42900003 0 .26700003 M .128 .26700003 C .128 .368 .18600002 .425 .256 .425 C .34100003 .425 .38300003 .347 .38300003 .268 C .38300003 .155 .321 .10700001 .25500003 .10700001 C .18 .10700001 .128 .17 .128 .26700003 Z "/>
</symbol>
<use xlink:href="#font_0_a" transform="matrix(28,0,0,-28,211.7886,689.0732)" fill="#36291f"/>
<use xlink:href="#font_0_21" transform="matrix(28,0,0,-28,227.32862,689.0732)" fill="#36291f"/>
<use xlink:href="#font_0_1b" transform="matrix(28,0,0,-28,238.33261,689.0732)" fill="#36291f"/>
<use xlink:href="#font_0_1c" transform="matrix(28,0,0,-28,245.80861,689.0732)" fill="#36291f"/>
<use xlink:href="#font_0_1" transform="matrix(28,0,0,-28,259.3046,689.0732)" fill="#36291f"/>
<use xlink:href="#font_0_6" transform="matrix(28,0,0,-28,266.1366,689.0732)" fill="#36291f"/>
<use xlink:href="#font_0_17" transform="matrix(28,0,0,-28,284.9246,689.4092)" fill="#36291f"/>
<use xlink:href="#font_0_1b" transform="matrix(28,0,0,-28,303.01258,689.0732)" fill="#36291f"/>
<use xlink:href="#font_0_19" transform="matrix(28,0,0,-28,309.5366,694.9532)" fill="#36291f"/>
<use xlink:href="#font_0_14" transform="matrix(28,0,0,-28,326.1966,689.4092)" fill="#36291f"/>
<use xlink:href="#font_0_21" transform="matrix(28,0,0,-28,342.35258,689.0732)" fill="#36291f"/>
<use xlink:href="#font_0_17" transform="matrix(28,0,0,-28,352.3766,689.4092)" fill="#36291f"/>
<symbol id="font_0_2">
<path d="M 0 0 L .127 0 L .127 .127 L 0 .127 L 0 0 Z "/>
</symbol>
<use xlink:href="#font_0_e" transform="matrix(20,0,0,-20,309.90348,713.0732)" fill="#36291f"/>
<use xlink:href="#font_0_2" transform="matrix(20,0,0,-20,327.40348,713.0732)" fill="#36291f"/>
<use xlink:href="#font_0_6" transform="matrix(20,0,0,-20,331.2635,713.0732)" fill="#36291f"/>
<use xlink:href="#font_0_2" transform="matrix(20,0,0,-20,345.28349,713.0732)" fill="#36291f"/>
<use xlink:href="#font_0_9" transform="matrix(20,0,0,-20,350.7635,713.0732)" fill="#36291f"/>
<use xlink:href="#font_0_2" transform="matrix(20,0,0,-20,364.66349,713.0732)" fill="#36291f"/>
<symbol id="font_2_10">
<path d="M .24200002 0 L .34100003 0 L .34100003 .62 L .583 .62 L .583 .70600005 L 0 .70600005 L 0 .62 L .24200002 .62 L .24200002 0 Z "/>
</symbol>
<symbol id="font_2_17">
<path d="M 0 0 L .097 0 L .097 .23700002 C .097 .261 .09900001 .284 .105000007 .30400003 C .126 .377 .18900001 .42900003 .26500003 .42900003 C .34600003 .42900003 .361 .37300004 .361 .30200003 L .361 0 L .45800004 0 L .45800004 .324 C .45800004 .453 .40300004 .518 .284 .518 C .183 .518 .119 .45400004 .097 .40500004 L .095 .40500004 C .095 .40500004 .097 .423 .097 .44700004 L .097 .70600005 L 0 .70600005 L 0 0 Z "/>
</symbol>
<symbol id="font_2_1f">
<path d="M 0 .194 C 0 .060000004 .059 0 .17300001 0 C .272 0 .338 .066 .35900004 .116000007 L .361 .116000007 C .361 .116000007 .35900004 .10000001 .35900004 .079 L .35900004 .012 L .453 .012 L .453 .51800009 L .356 .51800009 L .356 .28100003 C .356 .18100001 .29500003 .09 .192 .09 C .111 .09 .097 .146 .097 .216 L .097 .51800009 L 0 .51800009 L 0 .194 Z "/>
</symbol>
<symbol id="font_2_1c">
<path d="M 0 0 L .097 0 L .097 .20700002 C .097 .238 .10000001 .26900003 .109 .298 C .132 .37300004 .18900001 .41700004 .25100003 .41700004 C .266 .41700004 .279 .41400004 .279 .41400004 L .279 .51000007 C .279 .51000007 .26700003 .512 .254 .512 C .176 .512 .117 .45400004 .094 .38000003 L .09200001 .38000003 C .09200001 .38000003 .094 .397 .094 .418 L .094 .50600007 L 0 .50600007 L 0 0 Z "/>
</symbol>
<symbol id="font_2_1d">
<path d="M 0 .074 C 0 .074 .068 0 .19200002 0 C .30300004 0 .37500004 .063 .37500004 .147 C .37500004 .31300003 .11500001 .293 .11500001 .384 C .11500001 .428 .15600002 .446 .19800002 .446 C .27800004 .446 .323 .40100003 .323 .40100003 L .36200003 .474 C .36200003 .474 .31000004 .53000006 .19900002 .53000006 C .098000008 .53000006 .016000003 .47800002 .016000003 .386 C .016000003 .221 .27600003 .24000001 .27600003 .147 C .27600003 .106000009 .23400003 .08400001 .19200002 .08400001 C .10400002 .08400001 .047000003 .143 .047000003 .143 L 0 .074 Z "/>
</symbol>
<symbol id="font_2_15">
<path d="M 0 .26500003 C 0 .108 .08600001 0 .223 0 C .34800003 0 .389 .094000007 .389 .094000007 L .391 .094000007 C .391 .094000007 .39000003 .080000009 .39000003 .060000004 L .39000003 .012 L .48200003 .012 L .48200003 .71800008 L .38500003 .71800008 L .38500003 .48400004 C .38500003 .465 .387 .45000003 .387 .45000003 L .38500003 .45000003 C .38500003 .45000003 .34600003 .53000006 .22900002 .53000006 C .09500001 .53000006 0 .42600004 0 .26500003 M .09900001 .26500003 C .09900001 .38000003 .165 .446 .24500002 .446 C .341 .446 .388 .356 .388 .266 C .388 .137 .317 .08400001 .24200003 .08400001 C .158 .08400001 .09900001 .155 .09900001 .26500003 Z "/>
</symbol>
<symbol id="font_2_12">
<path d="M 0 .154 C 0 .053000004 .08500001 0 .17200002 0 C .293 0 .33400003 .10000001 .33400003 .10000001 L .33600004 .10000001 C .33600004 .10000001 .33400003 .083000008 .33400003 .060000004 L .33400003 .012 L .42400003 .012 L .42400003 .33200003 C .42400003 .46 .35200004 .53000006 .224 .53000006 C .10800001 .53000006 .035 .47000004 .035 .47000004 L .075 .39900003 C .075 .39900003 .13800001 .448 .21600002 .448 C .28000004 .448 .32700003 .42000003 .32700003 .337 L .32700003 .328 L .305 .328 C .22000003 .328 0 .321 0 .154 M .098000008 .159 C .098000008 .25 .23000002 .25500003 .30300004 .25500003 L .328 .25500003 L .328 .23900001 C .328 .164 .275 .078 .19300002 .078 C .13000001 .078 .098000008 .11800001 .098000008 .159 Z "/>
</symbol>
<symbol id="font_2_21">
<path d="M .0030000003 .031000004 C .0030000003 .031000004 .044000005 0 .10100001 0 C .172 0 .23400001 .040999995 .26500003 .119 L .50200006 .7160001 L .397 .7160001 L .27400003 .384 C .26500003 .358 .257 .324 .257 .324 L .255 .324 C .255 .324 .246 .35900004 .236 .38500003 L .10900001 .7160001 L 0 .7160001 L .21200001 .216 L .187 .158 C .168 .112 .135 .08400001 .09600001 .08400001 C .065000008 .08400001 .037 .105000007 .037 .105000007 L .0030000003 .031000004 Z "/>
</symbol>
<symbol id="font_2_2">
<path d="M 0 0 L .077 0 L .16100002 .206 L .062 .206 L 0 0 Z "/>
</symbol>
<symbol id="font_2_1">
<path d="M 0 0 Z "/>
</symbol>
<symbol id="font_2_f">
<path d="M 0 .093 C 0 .093 .084 0 .23400003 0 C .374 0 .458 .09 .458 .199 C .458 .428 .116000007 .389 .116000007 .535 C .116000007 .5910001 .169 .6380001 .24400002 .6380001 C .33400003 .6380001 .39900003 .577 .39900003 .577 L .44400005 .65900006 C .44400005 .65900006 .37500004 .7300001 .24400002 .7300001 C .11100001 .7300001 .015999999 .64300009 .015999999 .53300008 C .015999999 .316 .358 .349 .358 .19600001 C .358 .12900001 .30200003 .09200001 .23600003 .09200001 C .13100001 .09200001 .056 .168 .056 .168 L 0 .093 Z "/>
</symbol>
<symbol id="font_2_16">
<path d="M 0 .26500003 C 0 .11500001 .109000008 0 .268 0 C .389 0 .464 .072000008 .464 .072000008 L .42400003 .143 C .42400003 .143 .361 .08400001 .27400003 .08400001 C .18400002 .08400001 .10500001 .14 .1 .25100003 L .46900005 .25100003 C .46900005 .25100003 .472 .28 .472 .293 C .472 .42400003 .396 .53000006 .253 .53000006 C .109000008 .53000006 0 .42600004 0 .26500003 M .10300001 .324 C .117000009 .407 .17700002 .453 .25100003 .453 C .316 .453 .37 .411 .37300004 .324 L .10300001 .324 Z "/>
</symbol>
<symbol id="font_2_1b">
<path d="M 0 0 L .097 0 L .097 .227 C .097 .25300003 .095 .271 .095 .271 L .097 .271 C .097 .271 .141 .18800001 .252 .18800001 C .384 .18800001 .48100005 .292 .48100005 .453 C .48100005 .61 .395 .718 .259 .718 C .132 .718 .089 .62600007 .089 .62600007 L .087 .62600007 C .087 .62600007 .089 .643 .089 .66300007 L .089 .70600005 L 0 .70600005 L 0 0 M .094 .45100004 C .094 .58000007 .164 .633 .24000001 .633 C .324 .633 .38300003 .56200006 .38300003 .45200003 C .38300003 .337 .317 .271 .23700002 .271 C .14400001 .271 .094 .361 .094 .45100004 Z "/>
</symbol>
<symbol id="font_2_1e">
<path d="M .066 .189 C .066 .020000002 .19500001 0 .26000003 0 C .28000004 0 .29400004 .002 .29400004 .002 L .29400004 .08800001 C .29400004 .08800001 .28500004 .086 .27100004 .086 C .23400001 .086 .163 .09900001 .163 .2 L .163 .42500005 L .28500004 .42500005 L .28500004 .503 L .163 .503 L .163 .64900007 L .069 .64900007 L .069 .503 L 0 .503 L 0 .42500005 L .066 .42500005 L .066 .189 Z "/>
</symbol>
<symbol id="font_2_18">
<path d="M 0 0 L .097 0 L .097 .231 C .097 .254 .098000008 .277 .103 .29700003 C .12200001 .36900003 .174 .43 .248 .43 C .326 .43 .33600004 .36900003 .33600004 .303 L .33600004 0 L .433 0 L .433 .231 C .433 .257 .43500004 .28 .44000004 .30100004 C .45800004 .37 .51100006 .43 .582 .43 C .658 .43 .67200008 .374 .67200008 .303 L .67200008 0 L .76900008 0 L .76900008 .324 C .76900008 .453 .7160001 .518 .602 .518 C .52 .518 .45000003 .46400003 .42200003 .40300004 L .42000003 .40300004 C .40300004 .47900004 .35300002 .518 .268 .518 C .18900001 .518 .118 .46100004 .094 .402 L .09200001 .402 C .09200001 .402 .094 .41900004 .094 .439 L .094 .50600007 L 0 .50600007 L 0 0 Z "/>
</symbol>
<symbol id="font_2_13">
<path d="M 0 .012 L .09200001 .012 L .09200001 .049000004 C .09200001 .071 .09 .087000008 .09 .087000008 L .09200001 .087000008 C .09200001 .087000008 .13800001 0 .25100003 0 C .384 0 .48100005 .10400001 .48100005 .26500003 C .48100005 .42200003 .395 .53000006 .259 .53000006 C .14 .53000006 .097 .444 .097 .444 L .095 .444 C .095 .444 .097 .462 .097 .48700003 L .097 .71800008 L 0 .71800008 L 0 .012 M .094 .263 C .094 .39200003 .164 .44500003 .24000001 .44500003 C .324 .44500003 .38300003 .374 .38300003 .264 C .38300003 .149 .317 .083000008 .23700002 .083000008 C .141 .083000008 .094 .17300001 .094 .263 Z "/>
</symbol>
<symbol id="font_2_4">
<path d="M .004999999 0 L .411 0 L .411 .086 L .25700004 .086 L .25700004 .70600005 L .16900002 .70600005 L 0 .54200008 L .060000007 .48000003 L .126 .545 C .15200001 .57000008 .16000001 .586 .16000001 .586 L .16200002 .586 C .16200002 .586 .16100002 .564 .16100002 .54200008 L .16100002 .086 L .004999999 .086 L .004999999 0 Z "/>
</symbol>
<symbol id="font_2_5">
<path d="M .004999999 0 L .46000005 0 L .46000005 .086 L .11 .086 C .112 .24700001 .449 .28300003 .449 .51500007 C .449 .637 .356 .71800008 .22600001 .71800008 C .067 .71800008 .0029999987 .58400008 .0029999987 .58400008 L .076000008 .535 C .076000008 .535 .126 .625 .21900001 .625 C .293 .625 .34600003 .578 .34600003 .508 C .34600003 .342 0 .30600003 0 .054 C 0 .037 .0020000004 .019000002 .004999999 0 Z "/>
</symbol>
<symbol id="font_2_8">
<path d="M .264 0 C .396 0 .491 .097 .491 .236 C .491 .367 .402 .469 .268 .469 C .20600002 .469 .142 .442 .112 .402 L .110000018 .402 C .12500002 .51900008 .19200002 .63900008 .322 .63900008 C .378 .63900008 .423 .61600008 .423 .61600008 L .45499999 .70100006 C .45499999 .70100006 .401 .7300001 .318 .7300001 C .09900001 .7300001 0 .51400008 0 .333 C 0 .132 .113000009 0 .264 0 M .263 .091000009 C .17300001 .091000009 .104 .194 .104 .286 C .104 .337 .16800002 .38500003 .24800001 .38500003 C .338 .38500003 .393 .322 .393 .236 C .393 .154 .344 .091000009 .263 .091000009 Z "/>
</symbol>
<symbol id="font_2_b">
<path d="M 0 .40300004 L .102000009 .40300004 L .102000009 .50600007 L 0 .50600007 L 0 .40300004 M 0 0 L .102000009 0 L .102000009 .10300001 L 0 .10300001 L 0 0 Z "/>
</symbol>
<symbol id="font_2_3">
<path d="M .24900002 0 C .43800006 0 .49900005 .162 .49900005 .366 C .49900005 .56900009 .43800006 .7300001 .24900002 .7300001 C .061000006 .7300001 0 .56900009 0 .366 C 0 .162 .061000006 0 .24900002 0 M .24900002 .091000009 C .134 .091000009 .101 .212 .101 .366 C .101 .51900008 .134 .63900008 .24900002 .63900008 C .36500005 .63900008 .39800004 .51900008 .39800004 .366 C .39800004 .212 .36500005 .091000009 .24900002 .091000009 Z "/>
</symbol>
<use xlink:href="#font_2_10" transform="matrix(20,0,0,-20,146.20349,737.0732)" fill="#36291f"/>
<use xlink:href="#font_2_17" transform="matrix(20,0,0,-20,159.48349,737.0732)" fill="#36291f"/>
<use xlink:href="#font_2_1f" transform="matrix(20,0,0,-20,171.40349,737.3132)" fill="#36291f"/>
<use xlink:href="#font_2_1c" transform="matrix(20,0,0,-20,183.5035,737.0732)" fill="#36291f"/>
<use xlink:href="#font_2_1d" transform="matrix(20,0,0,-20,190.18349,737.3132)" fill="#36291f"/>
<use xlink:href="#font_2_15" transform="matrix(20,0,0,-20,199.3035,737.3132)" fill="#36291f"/>
<use xlink:href="#font_2_12" transform="matrix(20,0,0,-20,211.1635,737.3132)" fill="#36291f"/>
<use xlink:href="#font_2_21" transform="matrix(20,0,0,-20,221.06349,741.2732)" fill="#36291f"/>
<use xlink:href="#font_2_2" transform="matrix(20,0,0,-20,231.2835,739.0932)" fill="#36291f"/>
<use xlink:href="#font_2_1" transform="matrix(20,0,0,-20,235.8435,737.0732)" fill="#36291f"/>
<use xlink:href="#font_2_f" transform="matrix(20,0,0,-20,241.8235,737.3132)" fill="#36291f"/>
<use xlink:href="#font_2_16" transform="matrix(20,0,0,-20,252.72351,737.3132)" fill="#36291f"/>
<use xlink:href="#font_2_1b" transform="matrix(20,0,0,-20,264.5235,741.0732)" fill="#36291f"/>
<use xlink:href="#font_2_1e" transform="matrix(20,0,0,-20,275.6235,737.1532)" fill="#36291f"/>
<use xlink:href="#font_2_16" transform="matrix(20,0,0,-20,282.98353,737.3132)" fill="#36291f"/>
<use xlink:href="#font_2_18" transform="matrix(20,0,0,-20,294.7835,737.0732)" fill="#36291f"/>
<use xlink:href="#font_2_13" transform="matrix(20,0,0,-20,313.0635,737.3132)" fill="#36291f"/>
<use xlink:href="#font_2_16" transform="matrix(20,0,0,-20,324.36354,737.3132)" fill="#36291f"/>
<use xlink:href="#font_2_1c" transform="matrix(20,0,0,-20,336.1635,737.0732)" fill="#36291f"/>
<use xlink:href="#font_2_1" transform="matrix(20,0,0,-20,342.14353,737.0732)" fill="#36291f"/>
<use xlink:href="#font_2_4" transform="matrix(20,0,0,-20,348.30354,737.0732)" fill="#36291f"/>
<use xlink:href="#font_2_5" transform="matrix(20,0,0,-20,358.16355,737.0732)" fill="#36291f"/>
<use xlink:href="#font_2_8" transform="matrix(20,0,0,-20,291.44349,761.3132)" fill="#36291f"/>
<use xlink:href="#font_2_b" transform="matrix(20,0,0,-20,304.1435,761.0732)" fill="#36291f"/>
<use xlink:href="#font_2_3" transform="matrix(20,0,0,-20,309.3435,761.3132)" fill="#36291f"/>
<use xlink:href="#font_2_3" transform="matrix(20,0,0,-20,321.8435,761.3132)" fill="#36291f"/>
<use xlink:href="#font_2_1" transform="matrix(20,0,0,-20,333.0835,761.0732)" fill="#36291f"/>
<use xlink:href="#font_2_1b" transform="matrix(20,0,0,-20,339.7435,765.0732)" fill="#36291f"/>
<use xlink:href="#font_2_18" transform="matrix(20,0,0,-20,351.7435,761.0732)" fill="#36291f"/>
<symbol id="font_0_16">
<path d="M 0 .26700003 C 0 .11900001 .108 0 .277 0 C .41400004 0 .48700006 .083000008 .48700006 .083000008 L .43800003 .17300001 C .43800003 .17300001 .374 .108 .28800003 .108 C .19100002 .108 .12900001 .182 .12900001 .268 C .12900001 .35500003 .19 .42600004 .284 .42600004 C .36400003 .42600004 .41700004 .37100003 .41700004 .37100003 L .47300006 .458 C .47300006 .458 .41000004 .53400006 .277 .53400006 C .108 .53400006 0 .412 0 .26700003 Z "/>
</symbol>
<symbol id="font_0_1a">
<path d="M 0 0 L .127 0 L .127 .23400001 C .127 .25800003 .12900001 .28 .13500002 .3 C .15400002 .36200003 .20600003 .40600003 .27300004 .40600003 C .33800004 .40600003 .35400004 .36400003 .35400004 .30200003 L .35400004 0 L .48000003 0 L .48000003 .328 C .48000003 .46300004 .41600005 .522 .30300004 .522 C .21400002 .522 .15200001 .47000004 .127 .42100004 L .125 .42100004 C .125 .42100004 .127 .439 .127 .46400003 L .127 .71000006 L 0 .71000006 L 0 0 Z "/>
</symbol>
<symbol id="font_0_b">
<path d="M 0 .368 C 0 .145 .16100002 0 .34800003 0 C .48000003 0 .554 .076000008 .554 .076000008 L .55600008 .076000008 C .55600008 .076000008 .555 .061000006 .555 .046000005 L .555 .012 L .665 .012 L .665 .386 L .44000004 .386 L .44000004 .275 L .549 .275 L .549 .192 C .549 .192 .47800005 .11800001 .37100003 .11800001 C .238 .11800001 .13300002 .21800001 .13300002 .372 C .13300002 .50600007 .21800003 .61600008 .37700004 .61600008 C .49 .61600008 .56600007 .54800006 .56600007 .54800006 L .63000008 .64400008 C .63000008 .64400008 .54 .7340001 .36600004 .7340001 C .155 .7340001 0 .57400009 0 .368 Z "/>
</symbol>
<symbol id="font_0_15">
<path d="M 0 .012 L .12000001 .012 L .12000001 .041 C .12000001 .061000006 .11800001 .076000008 .11800001 .076000008 L .12000001 .076000008 C .12000001 .076000008 .16600001 0 .272 0 C .40700004 0 .50600007 .105000007 .50600007 .26700003 C .50600007 .425 .41800005 .53400006 .28000004 .53400006 C .17200002 .53400006 .127 .46 .127 .46 L .125 .46 C .125 .46 .127 .47800002 .127 .503 L .127 .72200009 L 0 .72200009 L 0 .012 M .123 .264 C .123 .377 .18500003 .425 .25100003 .425 C .32600004 .425 .37800003 .36200003 .37800003 .26500003 C .37800003 .164 .32000003 .10700001 .25000004 .10700001 C .16500002 .10700001 .123 .185 .123 .264 Z "/>
</symbol>
<use xlink:href="#font_0_e" transform="matrix(28,0,0,-28,682.8737,689.0732)" fill="#36291f"/>
<use xlink:href="#font_0_1b" transform="matrix(28,0,0,-28,707.51376,689.0732)" fill="#36291f"/>
<use xlink:href="#font_0_16" transform="matrix(28,0,0,-28,713.95376,689.4092)" fill="#36291f"/>
<use xlink:href="#font_0_1a" transform="matrix(28,0,0,-28,730.24978,689.0732)" fill="#36291f"/>
<use xlink:href="#font_0_14" transform="matrix(28,0,0,-28,746.2097,689.4092)" fill="#36291f"/>
<use xlink:href="#font_0_18" transform="matrix(28,0,0,-28,761.3578,689.4092)" fill="#36291f"/>
<use xlink:href="#font_0_1d" transform="matrix(28,0,0,-28,777.68179,689.2132)" fill="#36291f"/>
<use xlink:href="#font_0_1" transform="matrix(28,0,0,-28,783.8698,689.0732)" fill="#36291f"/>
<use xlink:href="#font_0_b" transform="matrix(28,0,0,-28,791.84988,689.4092)" fill="#36291f"/>
<use xlink:href="#font_0_14" transform="matrix(28,0,0,-28,812.70986,689.4092)" fill="#36291f"/>
<use xlink:href="#font_0_15" transform="matrix(28,0,0,-28,828.8659,689.4092)" fill="#36291f"/>
<use xlink:href="#font_0_18" transform="matrix(28,0,0,-28,844.9659,689.4092)" fill="#36291f"/>
<use xlink:href="#font_0_1d" transform="matrix(28,0,0,-28,861.28988,689.2132)" fill="#36291f"/>
<use xlink:href="#font_0_1d" transform="matrix(28,0,0,-28,869.2419,689.2132)" fill="#36291f"/>
<use xlink:href="#font_0_1b" transform="matrix(28,0,0,-28,877.38998,689.0732)" fill="#36291f"/>
<use xlink:href="#font_0_1f" transform="matrix(28,0,0,-28,884.86599,689.0732)" fill="#36291f"/>
<use xlink:href="#font_0_1b" transform="matrix(28,0,0,-28,902.02999,689.0732)" fill="#36291f"/>
<use xlink:href="#font_0_b" transform="matrix(20,0,0,-20,722.2047,713.3132)" fill="#36291f"/>
<use xlink:href="#font_0_14" transform="matrix(20,0,0,-20,737.1047,713.3132)" fill="#36291f"/>
<use xlink:href="#font_0_15" transform="matrix(20,0,0,-20,748.6447,713.3132)" fill="#36291f"/>
<use xlink:href="#font_0_18" transform="matrix(20,0,0,-20,760.14468,713.3132)" fill="#36291f"/>
<use xlink:href="#font_0_1d" transform="matrix(20,0,0,-20,771.8047,713.17318)" fill="#36291f"/>
<use xlink:href="#font_0_1d" transform="matrix(20,0,0,-20,777.4847,713.17318)" fill="#36291f"/>
<use xlink:href="#font_0_1b" transform="matrix(20,0,0,-20,783.3047,713.0732)" fill="#36291f"/>
<use xlink:href="#font_0_1f" transform="matrix(20,0,0,-20,788.6447,713.0732)" fill="#36291f"/>
<use xlink:href="#font_0_1b" transform="matrix(20,0,0,-20,800.9047,713.0732)" fill="#36291f"/>
<use xlink:href="#font_0_1" transform="matrix(20,0,0,-20,804.8447,713.0732)" fill="#36291f"/>
<use xlink:href="#font_0_6" transform="matrix(20,0,0,-20,809.72476,713.0732)" fill="#36291f"/>
<use xlink:href="#font_0_22" transform="matrix(20,0,0,-20,822.9847,713.3132)" fill="#36291f"/>
<use xlink:href="#font_0_22" transform="matrix(20,0,0,-20,832.02468,713.3132)" fill="#36291f"/>
<use xlink:href="#font_0_20" transform="matrix(20,0,0,-20,841.1647,713.3132)" fill="#36291f"/>
<use xlink:href="#font_0_16" transform="matrix(20,0,0,-20,853.68466,713.3132)" fill="#36291f"/>
<use xlink:href="#font_0_1b" transform="matrix(20,0,0,-20,865.3247,713.0732)" fill="#36291f"/>
<use xlink:href="#font_0_14" transform="matrix(20,0,0,-20,869.8047,713.3132)" fill="#36291f"/>
<use xlink:href="#font_0_23" transform="matrix(20,0,0,-20,880.4047,713.17318)" fill="#36291f"/>
<use xlink:href="#font_0_18" transform="matrix(20,0,0,-20,888.1047,713.3132)" fill="#36291f"/>
<use xlink:href="#font_0_22" transform="matrix(20,0,0,-20,899.0447,713.3132)" fill="#36291f"/>
<symbol id="font_2_11">
<path d="M .39500005 .70600005 L .25700004 .18800001 C .24700001 .149 .24200002 .113000009 .24200002 .113000009 L .24000001 .113000009 C .24000001 .113000009 .23600003 .15 .22700003 .18800001 L .102000009 .70600005 L 0 .70600005 L .18 0 L .29500003 0 L .41700004 .45800004 C .42900003 .503 .43800003 .558 .43800003 .558 L .44000004 .558 C .44000004 .558 .44900004 .503 .46100004 .45800004 L .58300009 0 L .698 0 L .8830001 .70600005 L .781 .70600005 L .651 .18800001 C .64100006 .15 .638 .113000009 .638 .113000009 L .63600006 .113000009 C .63600006 .113000009 .63100007 .149 .62100008 .18800001 L .48300005 .70600005 L .39500005 .70600005 Z "/>
</symbol>
<symbol id="font_2_19">
<path d="M 0 0 L .097 0 L .097 .23700002 C .097 .26200003 .09900001 .28500004 .105000007 .305 C .126 .37800003 .188 .42900003 .26500003 .42900003 C .34600003 .42900003 .361 .37300004 .361 .30200003 L .361 0 L .45800004 0 L .45800004 .324 C .45800004 .453 .40300004 .518 .284 .518 C .174 .518 .11400001 .446 .094 .402 L .09200001 .402 C .09200001 .402 .094 .41900004 .094 .439 L .094 .50600007 L 0 .50600007 L 0 0 Z "/>
</symbol>
<symbol id="font_2_d">
<path d="M 0 0 L .09900001 0 L .09900001 .45800004 C .09900001 .49800004 .09200001 .56100007 .09200001 .56100007 L .09400001 .56100007 C .09400001 .56100007 .127 .497 .15300001 .45800004 L .468 0 L .565 0 L .565 .70600005 L .46600003 .70600005 L .46600003 .24700001 C .46600003 .208 .473 .14500001 .473 .14500001 L .47100003 .14500001 C .47100003 .14500001 .43800003 .209 .412 .24700001 L .098000008 .70600005 L 0 .70600005 L 0 0 Z "/>
</symbol>
<symbol id="font_2_1a">
<path d="M 0 .266 C 0 .112 .12200001 0 .273 0 C .42400003 0 .54600009 .112 .54600009 .266 C .54600009 .419 .42400003 .53000006 .273 .53000006 C .12200001 .53000006 0 .419 0 .266 M .09900001 .266 C .09900001 .37100003 .178 .446 .273 .446 C .36900003 .446 .44700004 .37100003 .44700004 .266 C .44700004 .16 .36900003 .08400001 .273 .08400001 C .178 .08400001 .09900001 .16 .09900001 .266 Z "/>
</symbol>
<symbol id="font_2_20">
<path d="M .18900001 0 L .30100004 0 L .48800005 .50600007 L .386 .50600007 L .263 .164 C .25300003 .136 .24600002 .095000009 .245 .095000009 L .243 .095000009 C .24200002 .095000009 .23600002 .136 .22600001 .164 L .10300001 .50600007 L 0 .50600007 L .18900001 0 Z "/>
</symbol>
<use xlink:href="#font_2_11" transform="matrix(20,0,0,-20,677.62466,737.0732)" fill="#36291f"/>
<use xlink:href="#font_2_16" transform="matrix(20,0,0,-20,696.3647,737.3132)" fill="#36291f"/>
<use xlink:href="#font_2_15" transform="matrix(20,0,0,-20,707.50466,737.3132)" fill="#36291f"/>
<use xlink:href="#font_2_19" transform="matrix(20,0,0,-20,720.1847,737.0732)" fill="#36291f"/>
<use xlink:href="#font_2_16" transform="matrix(20,0,0,-20,731.5447,737.3132)" fill="#36291f"/>
<use xlink:href="#font_2_1d" transform="matrix(20,0,0,-20,742.52468,737.3132)" fill="#36291f"/>
<use xlink:href="#font_2_15" transform="matrix(20,0,0,-20,751.64468,737.3132)" fill="#36291f"/>
<use xlink:href="#font_2_12" transform="matrix(20,0,0,-20,763.5047,737.3132)" fill="#36291f"/>
<use xlink:href="#font_2_21" transform="matrix(20,0,0,-20,773.40469,741.2732)" fill="#36291f"/>
<use xlink:href="#font_2_2" transform="matrix(20,0,0,-20,783.6247,739.0932)" fill="#36291f"/>
<use xlink:href="#font_2_1" transform="matrix(20,0,0,-20,788.1847,737.0732)" fill="#36291f"/>
<use xlink:href="#font_2_d" transform="matrix(20,0,0,-20,795.2447,737.0732)" fill="#36291f"/>
<use xlink:href="#font_2_1a" transform="matrix(20,0,0,-20,809.24478,737.3132)" fill="#36291f"/>
<use xlink:href="#font_2_20" transform="matrix(20,0,0,-20,821.0847,737.0732)" fill="#36291f"/>
<use xlink:href="#font_2_16" transform="matrix(20,0,0,-20,831.8047,737.3132)" fill="#36291f"/>
<use xlink:href="#font_2_18" transform="matrix(20,0,0,-20,843.6047,737.0732)" fill="#36291f"/>
<use xlink:href="#font_2_13" transform="matrix(20,0,0,-20,861.8847,737.3132)" fill="#36291f"/>
<use xlink:href="#font_2_16" transform="matrix(20,0,0,-20,873.1847,737.3132)" fill="#36291f"/>
<use xlink:href="#font_2_1c" transform="matrix(20,0,0,-20,884.9847,737.0732)" fill="#36291f"/>
<use xlink:href="#font_2_1" transform="matrix(20,0,0,-20,890.96469,737.0732)" fill="#36291f"/>
<use xlink:href="#font_2_5" transform="matrix(20,0,0,-20,897.20468,737.0732)" fill="#36291f"/>
<use xlink:href="#font_2_8" transform="matrix(20,0,0,-20,830.4847,761.3132)" fill="#36291f"/>
<use xlink:href="#font_2_b" transform="matrix(20,0,0,-20,843.1847,761.0732)" fill="#36291f"/>
<use xlink:href="#font_2_3" transform="matrix(20,0,0,-20,848.3847,761.3132)" fill="#36291f"/>
<use xlink:href="#font_2_3" transform="matrix(20,0,0,-20,860.8847,761.3132)" fill="#36291f"/>
<use xlink:href="#font_2_1" transform="matrix(20,0,0,-20,872.1247,761.0732)" fill="#36291f"/>
<use xlink:href="#font_2_1b" transform="matrix(20,0,0,-20,878.7847,765.0732)" fill="#36291f"/>
<use xlink:href="#font_2_18" transform="matrix(20,0,0,-20,890.7847,761.0732)" fill="#36291f"/>
<symbol id="font_0_d">
<path d="M 0 .222 C 0 .069000009 .111 0 .22000002 0 C .33 0 .44200004 .067 .44200004 .222 L .44200004 .72200009 L .13000001 .72200009 L .13000001 .61100009 L .31300003 .61100009 L .31300003 .224 C .31300003 .147 .27 .11800001 .222 .11800001 C .17400001 .11800001 .128 .146 .128 .23 L .128 .263 L 0 .263 L 0 .222 Z "/>
</symbol>
<symbol id="font_0_7">
<path d="M 0 0 L .257 0 C .388 0 .502 .064 .502 .20600002 C .502 .27800004 .465 .35000003 .38700003 .37300004 L .38700003 .37500004 C .441 .404 .47300003 .46100004 .47300003 .527 C .47300003 .64400008 .38200004 .71000006 .254 .71000006 L 0 .71000006 L 0 0 M .12900001 .42000003 L .12900001 .59900006 L .252 .59900006 C .312 .59900006 .342 .56200006 .342 .51100006 C .342 .46 .31 .42000003 .254 .42000003 L .12900001 .42000003 M .12900001 .11100001 L .12900001 .316 L .26700003 .316 C .33200003 .316 .37 .273 .37 .21400002 C .37 .15400002 .333 .11100001 .26700003 .11100001 L .12900001 .11100001 Z "/>
</symbol>
<use xlink:href="#font_0_d" transform="matrix(28,0,0,-28,420.507,689.4092)" fill="#36291f"/>
<use xlink:href="#font_0_24" transform="matrix(28,0,0,-28,436.915,689.4092)" fill="#36291f"/>
<use xlink:href="#font_0_1d" transform="matrix(28,0,0,-28,453.967,689.2132)" fill="#36291f"/>
<use xlink:href="#font_0_1b" transform="matrix(28,0,0,-28,462.115,689.0732)" fill="#36291f"/>
<use xlink:href="#font_0_18" transform="matrix(28,0,0,-28,468.583,689.4092)" fill="#36291f"/>
<use xlink:href="#font_0_1" transform="matrix(28,0,0,-28,483.143,689.0732)" fill="#36291f"/>
<use xlink:href="#font_0_7" transform="matrix(28,0,0,-28,492.46699,689.0732)" fill="#36291f"/>
<use xlink:href="#font_0_14" transform="matrix(28,0,0,-28,508.67903,689.4092)" fill="#36291f"/>
<use xlink:href="#font_0_21" transform="matrix(28,0,0,-28,524.835,689.0732)" fill="#36291f"/>
<use xlink:href="#font_0_19" transform="matrix(28,0,0,-28,534.887,694.9532)" fill="#36291f"/>
<use xlink:href="#font_0_1e" transform="matrix(28,0,0,-28,552.75106,689.0732)" fill="#36291f"/>
<use xlink:href="#font_0_14" transform="matrix(28,0,0,-28,577.111,689.4092)" fill="#36291f"/>
<use xlink:href="#font_0_1f" transform="matrix(28,0,0,-28,593.2671,689.0732)" fill="#36291f"/>
<use xlink:href="#font_0_1f" transform="matrix(28,0,0,-28,610.4311,689.0732)" fill="#36291f"/>
<symbol id="font_0_c">
<path d="M 0 0 L .12900001 0 L .12900001 .71000006 L 0 .71000006 L 0 0 Z "/>
</symbol>
<symbol id="font_0_10">
<path d="M 0 0 L .12900001 0 L .12900001 .26500003 L .25300003 .26500003 L .39400003 0 L .538 0 L .39200003 .26500003 C .37800003 .29000003 .36800004 .3 .36800004 .3 L .36800004 .30200003 C .44300006 .33200003 .488 .411 .488 .49600003 C .488 .59000006 .44300006 .65800008 .372 .69000008 C .34100003 .70400008 .30600003 .71000006 .229 .71000006 L 0 .71000006 L 0 0 M .12900001 .377 L .12900001 .59900006 L .227 .59900006 C .328 .59900006 .35700003 .55700007 .35700003 .48900003 C .35700003 .418 .314 .377 .245 .377 L .12900001 .377 Z "/>
</symbol>
<symbol id="font_0_12">
<path d="M .23300003 0 L .36200003 0 L .36200003 .59900006 L .595 .59900006 L .595 .71000006 L 0 .71000006 L 0 .59900006 L .23300003 .59900006 L .23300003 0 Z "/>
</symbol>
<symbol id="font_0_11">
<path d="M 0 .097 C 0 .097 .087 0 .24500002 0 C .393 0 .47900004 .095000009 .47900004 .208 C .47900004 .435 .14500001 .404 .14500001 .53000006 C .14500001 .58000007 .19200002 .61500009 .252 .61500009 C .341 .61500009 .409 .55300006 .409 .55300006 L .46500004 .65800008 C .46500004 .65800008 .393 .7340001 .253 .7340001 C .11700001 .7340001 .015000001 .646 .015000001 .52800008 C .015000001 .31 .35 .33200003 .35 .205 C .35 .147 .301 .11900001 .24700003 .11900001 C .14700002 .11900001 .07000001 .194 .07000001 .194 L 0 .097 Z "/>
</symbol>
<use xlink:href="#font_0_9" transform="matrix(20,0,0,-20,497.95429,713.0732)" fill="#36291f"/>
<use xlink:href="#font_0_2" transform="matrix(20,0,0,-20,511.85429,713.0732)" fill="#36291f"/>
<use xlink:href="#font_0_c" transform="matrix(20,0,0,-20,517.3343,713.0732)" fill="#36291f"/>
<use xlink:href="#font_0_2" transform="matrix(20,0,0,-20,522.8543,713.0732)" fill="#36291f"/>
<use xlink:href="#font_0_10" transform="matrix(20,0,0,-20,528.33438,713.0732)" fill="#36291f"/>
<use xlink:href="#font_0_2" transform="matrix(20,0,0,-20,540.9943,713.0732)" fill="#36291f"/>
<use xlink:href="#font_0_12" transform="matrix(20,0,0,-20,543.8544,713.0732)" fill="#36291f"/>
<use xlink:href="#font_0_2" transform="matrix(20,0,0,-20,556.07437,713.0732)" fill="#36291f"/>
<use xlink:href="#font_0_1" transform="matrix(20,0,0,-20,559.91439,713.0732)" fill="#36291f"/>
<use xlink:href="#font_0_11" transform="matrix(20,0,0,-20,565.4943,713.3132)" fill="#36291f"/>
<use xlink:href="#font_0_23" transform="matrix(20,0,0,-20,576.3744,713.17318)" fill="#36291f"/>
<use xlink:href="#font_0_24" transform="matrix(20,0,0,-20,584.65438,713.3132)" fill="#36291f"/>
<use xlink:href="#font_0_17" transform="matrix(20,0,0,-20,596.27438,713.3132)" fill="#36291f"/>
<use xlink:href="#font_0_1b" transform="matrix(20,0,0,-20,609.19436,713.0732)" fill="#36291f"/>
<use xlink:href="#font_0_20" transform="matrix(20,0,0,-20,613.77438,713.3132)" fill="#36291f"/>
<symbol id="font_2_e">
<path d="M 0 .37 C 0 .162 .15900001 0 .363 0 C .56700006 0 .7250001 .162 .7250001 .37 C .7250001 .5730001 .56700006 .7300001 .363 .7300001 C .15900001 .7300001 0 .5730001 0 .37 M .102000009 .37 C .102000009 .52400007 .21900001 .64000007 .363 .64000007 C .507 .64000007 .623 .52400007 .623 .37 C .623 .21100001 .507 .091000009 .363 .091000009 C .21900001 .091000009 .102000009 .21100001 .102000009 .37 Z "/>
</symbol>
<symbol id="font_2_14">
<path d="M 0 .26500003 C 0 .113000009 .112 0 .27100004 0 C .40300004 0 .47300003 .08100001 .47300003 .08100001 L .43400005 .152 C .43400005 .152 .37200005 .08400001 .27800004 .08400001 C .17300001 .08400001 .09900001 .163 .09900001 .266 C .09900001 .37 .17300001 .446 .27500005 .446 C .36100004 .446 .41500003 .388 .41500003 .388 L .46100006 .45600004 C .46100006 .45600004 .39800004 .53000006 .27100004 .53000006 C .112 .53000006 0 .41500003 0 .26500003 Z "/>
</symbol>
<symbol id="font_2_a">
<path d="M .17300001 0 C .39200003 0 .49100004 .216 .49100004 .397 C .49100004 .59900006 .37700004 .7300001 .22700003 .7300001 C .095000009 .7300001 0 .6330001 0 .49400003 C 0 .363 .08900001 .262 .22300002 .262 C .28500004 .262 .35000003 .28800003 .37900005 .328 L .381 .328 C .36600004 .21100001 .29900003 .091000009 .169 .091000009 C .113 .091000009 .068 .11500001 .068 .11500001 L .036 .029000001 C .036 .029000001 .08900001 0 .17300001 0 M .24300003 .345 C .15200001 .345 .098 .40800003 .098 .49400003 C .098 .57600006 .146 .63900008 .22800002 .63900008 C .31800003 .63900008 .38700003 .5360001 .38700003 .444 C .38700003 .39400003 .323 .345 .24300003 .345 Z "/>
</symbol>
<symbol id="font_2_9">
<path d="M .051000004 0 L .15300001 0 L .47200004 .638 L .47200004 .70600005 L 0 .70600005 L 0 .62 L .31500004 .62 C .351 .62 .367 .623 .367 .623 L .367 .62100008 C .367 .62100008 .34600003 .596 .32600004 .55600008 L .051000004 0 Z "/>
</symbol>
<symbol id="font_2_6">
<path d="M 0 .09600001 C 0 .09600001 .08499999 0 .22900002 0 C .37400005 0 .469 .106000009 .469 .227 C .469 .36400003 .35500003 .42400003 .26200003 .43400003 L .45400004 .65500006 L .45400004 .71800008 L .032 .71800008 L .032 .632 L .27100004 .632 C .31000004 .632 .33100004 .63500007 .33100004 .63500007 L .33100004 .6330001 C .33100004 .6330001 .31000004 .6140001 .28700004 .5870001 L .133 .40600003 L .156 .35300002 L .205 .35300002 C .29200004 .35300002 .36900003 .31 .36900003 .223 C .36900003 .147 .30400003 .094000007 .22500001 .094000007 C .122999999 .094000007 .054 .171 .054 .171 L 0 .09600001 Z "/>
</symbol>
<use xlink:href="#font_2_10" transform="matrix(20,0,0,-20,446.4343,737.0732)" fill="#36291f"/>
<use xlink:href="#font_2_1f" transform="matrix(20,0,0,-20,457.73429,737.3132)" fill="#36291f"/>
<use xlink:href="#font_2_16" transform="matrix(20,0,0,-20,469.13429,737.3132)" fill="#36291f"/>
<use xlink:href="#font_2_1d" transform="matrix(20,0,0,-20,480.1143,737.3132)" fill="#36291f"/>
<use xlink:href="#font_2_15" transform="matrix(20,0,0,-20,489.23426,737.3132)" fill="#36291f"/>
<use xlink:href="#font_2_12" transform="matrix(20,0,0,-20,501.09428,737.3132)" fill="#36291f"/>
<use xlink:href="#font_2_21" transform="matrix(20,0,0,-20,510.99427,741.2732)" fill="#36291f"/>
<use xlink:href="#font_2_2" transform="matrix(20,0,0,-20,521.21426,739.0932)" fill="#36291f"/>
<use xlink:href="#font_2_1" transform="matrix(20,0,0,-20,525.77426,737.0732)" fill="#36291f"/>
<use xlink:href="#font_2_e" transform="matrix(20,0,0,-20,531.87429,737.3132)" fill="#36291f"/>
<use xlink:href="#font_2_14" transform="matrix(20,0,0,-20,548.1342,737.3132)" fill="#36291f"/>
<use xlink:href="#font_2_1e" transform="matrix(20,0,0,-20,558.8942,737.1532)" fill="#36291f"/>
<use xlink:href="#font_2_1a" transform="matrix(20,0,0,-20,566.21426,737.3132)" fill="#36291f"/>
<use xlink:href="#font_2_13" transform="matrix(20,0,0,-20,579.4342,737.3132)" fill="#36291f"/>
<use xlink:href="#font_2_16" transform="matrix(20,0,0,-20,590.7342,737.3132)" fill="#36291f"/>
<use xlink:href="#font_2_1c" transform="matrix(20,0,0,-20,602.5342,737.0732)" fill="#36291f"/>
<use xlink:href="#font_2_1" transform="matrix(20,0,0,-20,608.51419,737.0732)" fill="#36291f"/>
<use xlink:href="#font_2_a" transform="matrix(20,0,0,-20,614.63418,737.3132)" fill="#36291f"/>
<use xlink:href="#font_2_9" transform="matrix(20,0,0,-20,550.6543,761.0732)" fill="#36291f"/>
<use xlink:href="#font_2_b" transform="matrix(20,0,0,-20,562.4343,761.0732)" fill="#36291f"/>
<use xlink:href="#font_2_6" transform="matrix(20,0,0,-20,567.1743,761.3132)" fill="#36291f"/>
<use xlink:href="#font_2_3" transform="matrix(20,0,0,-20,578.97439,761.3132)" fill="#36291f"/>
<use xlink:href="#font_2_1" transform="matrix(20,0,0,-20,590.21438,761.0732)" fill="#36291f"/>
<use xlink:href="#font_2_1b" transform="matrix(20,0,0,-20,596.8744,765.0732)" fill="#36291f"/>
<use xlink:href="#font_2_18" transform="matrix(20,0,0,-20,608.8744,761.0732)" fill="#36291f"/>
<symbol id="font_0_28">
<path d="M 0 .26700003 C 0 .12200001 .10500001 0 .27400003 0 C .40100003 0 .479 .07300001 .479 .07300001 L .43 .164 C .43 .164 .365 .108 .283 .108 C .20700002 .108 .13800001 .154 .13 .243 L .48200003 .243 C .48200003 .243 .48500005 .277 .48500005 .292 C .48500005 .42700003 .40600003 .53400006 .259 .53400006 C .107 .53400006 0 .42400003 0 .26700003 M .134 .33 C .146 .396 .19100002 .43600003 .256 .43600003 C .312 .43600003 .35500003 .39900003 .35700003 .33 L .134 .33 M .201 .58500006 L .303 .58500006 L .40800003 .7210001 L .277 .7210001 L .201 .58500006 Z "/>
</symbol>
<symbol id="font_0_27">
<path d="M 0 0 L .45100004 0 L .45100004 .108 L .21900001 .108 C .18600002 .108 .17100002 .105000007 .17100002 .105000007 L .17100002 .10700001 C .17100002 .10700001 .19200002 .125 .215 .15400002 L .44400005 .441 L .44400005 .51000007 L .010000002 .51000007 L .010000002 .402 L .22500003 .402 C .25700004 .402 .272 .404 .272 .404 L .272 .402 C .272 .402 .252 .384 .229 .35500003 L 0 .068 L 0 0 Z "/>
</symbol>
<use xlink:href="#font_0_10" transform="matrix(28,0,0,-28,994.271,689.0732)" fill="#36291f"/>
<use xlink:href="#font_0_18" transform="matrix(28,0,0,-28,1010.987,689.4092)" fill="#36291f"/>
<use xlink:href="#font_0_15" transform="matrix(28,0,0,-28,1027.507,689.4092)" fill="#36291f"/>
<use xlink:href="#font_0_18" transform="matrix(28,0,0,-28,1043.607,689.4092)" fill="#36291f"/>
<use xlink:href="#font_0_16" transform="matrix(28,0,0,-28,1059.091,689.4092)" fill="#36291f"/>
<use xlink:href="#font_0_14" transform="matrix(28,0,0,-28,1074.183,689.4092)" fill="#36291f"/>
<use xlink:href="#font_0_1" transform="matrix(28,0,0,-28,1088.379,689.0732)" fill="#36291f"/>
<use xlink:href="#font_0_e" transform="matrix(28,0,0,-28,1097.087,689.0732)" fill="#36291f"/>
<use xlink:href="#font_0_28" transform="matrix(28,0,0,-28,1120.719,689.4092)" fill="#36291f"/>
<use xlink:href="#font_0_1f" transform="matrix(28,0,0,-28,1137.2389,689.0732)" fill="#36291f"/>
<use xlink:href="#font_0_17" transform="matrix(28,0,0,-28,1153.4229,689.4092)" fill="#36291f"/>
<use xlink:href="#font_0_18" transform="matrix(28,0,0,-28,1170.5029,689.4092)" fill="#36291f"/>
<use xlink:href="#font_0_27" transform="matrix(28,0,0,-28,1186.0429,689.0732)" fill="#36291f"/>
<symbol id="font_0_8">
<path d="M 0 .37 C 0 .161 .15 0 .367 0 C .54800006 0 .646 .11500001 .646 .11500001 L .578 .208 C .578 .208 .495 .11800001 .372 .11800001 C .224 .11800001 .13300002 .237 .13300002 .372 C .13300002 .504 .22100002 .61600008 .37100003 .61600008 C .48400004 .61600008 .565 .54100009 .565 .54100009 L .62700006 .637 C .62700006 .637 .53800007 .7340001 .365 .7340001 C .15600002 .7340001 0 .57600006 0 .37 Z "/>
</symbol>
<use xlink:href="#font_0_e" transform="matrix(20,0,0,-20,960.2345,713.0732)" fill="#36291f"/>
<use xlink:href="#font_0_28" transform="matrix(20,0,0,-20,977.1145,713.3132)" fill="#36291f"/>
<use xlink:href="#font_0_1f" transform="matrix(20,0,0,-20,988.91458,713.0732)" fill="#36291f"/>
<use xlink:href="#font_0_17" transform="matrix(20,0,0,-20,1000.47457,713.3132)" fill="#36291f"/>
<use xlink:href="#font_0_18" transform="matrix(20,0,0,-20,1012.6745,713.3132)" fill="#36291f"/>
<use xlink:href="#font_0_27" transform="matrix(20,0,0,-20,1023.77456,713.0732)" fill="#36291f"/>
<use xlink:href="#font_0_1" transform="matrix(20,0,0,-20,1033.5546,713.0732)" fill="#36291f"/>
<use xlink:href="#font_0_8" transform="matrix(20,0,0,-20,1039.2345,713.3132)" fill="#36291f"/>
<use xlink:href="#font_0_20" transform="matrix(20,0,0,-20,1053.3745,713.3132)" fill="#36291f"/>
<use xlink:href="#font_0_1e" transform="matrix(20,0,0,-20,1066.6345,713.0732)" fill="#36291f"/>
<use xlink:href="#font_0_1e" transform="matrix(20,0,0,-20,1084.8945,713.0732)" fill="#36291f"/>
<use xlink:href="#font_0_24" transform="matrix(20,0,0,-20,1103.0145,713.3132)" fill="#36291f"/>
<use xlink:href="#font_0_1f" transform="matrix(20,0,0,-20,1115.3346,713.0732)" fill="#36291f"/>
<use xlink:href="#font_0_1b" transform="matrix(20,0,0,-20,1127.5946,713.0732)" fill="#36291f"/>
<use xlink:href="#font_0_16" transform="matrix(20,0,0,-20,1132.1946,713.3132)" fill="#36291f"/>
<use xlink:href="#font_0_14" transform="matrix(20,0,0,-20,1142.9746,713.3132)" fill="#36291f"/>
<use xlink:href="#font_0_23" transform="matrix(20,0,0,-20,1153.5746,713.17318)" fill="#36291f"/>
<use xlink:href="#font_0_1b" transform="matrix(20,0,0,-20,1161.9946,713.0732)" fill="#36291f"/>
<use xlink:href="#font_0_20" transform="matrix(20,0,0,-20,1166.5746,713.3132)" fill="#36291f"/>
<use xlink:href="#font_0_1f" transform="matrix(20,0,0,-20,1179.8346,713.0732)" fill="#36291f"/>
<use xlink:href="#font_0_22" transform="matrix(20,0,0,-20,1191.2346,713.3132)" fill="#36291f"/>
<symbol id="font_2_c">
<path d="M 0 0 L .23400001 0 C .45 0 .592 .13000001 .592 .354 C .592 .577 .45 .70600005 .23400001 .70600005 L 0 .70600005 L 0 0 M .09900001 .086 L .09900001 .62 L .22700002 .62 C .38500006 .62 .49 .527 .49 .354 C .49 .18 .38600005 .086 .22700002 .086 L .09900001 .086 Z "/>
</symbol>
<symbol id="font_2_7">
<path d="M 0 .18900001 L .34200005 .18900001 L .34200005 0 L .43900005 0 L .43900005 .18900001 L .535 .18900001 L .535 .273 L .43900005 .273 L .43900005 .70600005 L .32600004 .70600005 L 0 .25100003 L 0 .18900001 M .109 .273 L .109 .275 L .30900003 .54200008 C .32800005 .56700006 .34400005 .6 .34400005 .6 L .34600003 .6 C .34600003 .6 .34200005 .563 .34200005 .53000006 L .34200005 .273 L .109 .273 Z "/>
</symbol>
<use xlink:href="#font_2_10" transform="matrix(20,0,0,-20,990.8745,737.0732)" fill="#36291f"/>
<use xlink:href="#font_2_17" transform="matrix(20,0,0,-20,1004.15457,737.0732)" fill="#36291f"/>
<use xlink:href="#font_2_1f" transform="matrix(20,0,0,-20,1016.0745,737.3132)" fill="#36291f"/>
<use xlink:href="#font_2_1c" transform="matrix(20,0,0,-20,1028.1746,737.0732)" fill="#36291f"/>
<use xlink:href="#font_2_1d" transform="matrix(20,0,0,-20,1034.8545,737.3132)" fill="#36291f"/>
<use xlink:href="#font_2_15" transform="matrix(20,0,0,-20,1043.9745,737.3132)" fill="#36291f"/>
<use xlink:href="#font_2_12" transform="matrix(20,0,0,-20,1055.8345,737.3132)" fill="#36291f"/>
<use xlink:href="#font_2_21" transform="matrix(20,0,0,-20,1065.7346,741.2732)" fill="#36291f"/>
<use xlink:href="#font_2_2" transform="matrix(20,0,0,-20,1075.9546,739.0932)" fill="#36291f"/>
<use xlink:href="#font_2_1" transform="matrix(20,0,0,-20,1080.5145,737.0732)" fill="#36291f"/>
<use xlink:href="#font_2_c" transform="matrix(20,0,0,-20,1087.5746,737.0732)" fill="#36291f"/>
<use xlink:href="#font_2_16" transform="matrix(20,0,0,-20,1101.2745,737.3132)" fill="#36291f"/>
<use xlink:href="#font_2_14" transform="matrix(20,0,0,-20,1112.3546,737.3132)" fill="#36291f"/>
<use xlink:href="#font_2_16" transform="matrix(20,0,0,-20,1123.3145,737.3132)" fill="#36291f"/>
<use xlink:href="#font_2_18" transform="matrix(20,0,0,-20,1135.1145,737.0732)" fill="#36291f"/>
<use xlink:href="#font_2_13" transform="matrix(20,0,0,-20,1153.3945,737.3132)" fill="#36291f"/>
<use xlink:href="#font_2_16" transform="matrix(20,0,0,-20,1164.6945,737.3132)" fill="#36291f"/>
<use xlink:href="#font_2_1c" transform="matrix(20,0,0,-20,1176.4945,737.0732)" fill="#36291f"/>
<use xlink:href="#font_2_1" transform="matrix(20,0,0,-20,1182.4745,737.0732)" fill="#36291f"/>
<use xlink:href="#font_2_7" transform="matrix(20,0,0,-20,1188.2345,737.0732)" fill="#36291f"/>
<use xlink:href="#font_2_8" transform="matrix(20,0,0,-20,1123.8346,761.3132)" fill="#36291f"/>
<use xlink:href="#font_2_b" transform="matrix(20,0,0,-20,1136.5346,761.0732)" fill="#36291f"/>
<use xlink:href="#font_2_6" transform="matrix(20,0,0,-20,1141.2745,761.3132)" fill="#36291f"/>
<use xlink:href="#font_2_3" transform="matrix(20,0,0,-20,1153.0745,761.3132)" fill="#36291f"/>
<use xlink:href="#font_2_1" transform="matrix(20,0,0,-20,1164.3145,761.0732)" fill="#36291f"/>
<use xlink:href="#font_2_1b" transform="matrix(20,0,0,-20,1170.9745,765.0732)" fill="#36291f"/>
<use xlink:href="#font_2_18" transform="matrix(20,0,0,-20,1182.9745,761.0732)" fill="#36291f"/>
<clipPath id="cp3">
<path transform="matrix(1,0,0,-1,0,792)" d="M 0 792 L 1224 792 L 1224 0 L 0 0 Z "/>
</clipPath>
<g clip-path="url(#cp3)">
<path transform="matrix(1,0,0,-1,0,792)" d="M 711.444 318.891 L 376.82099 318.891 L 376.82099 330.349 L 711.444 330.349 Z " fill="#ffffff"/>
</g>
<symbol id="font_0_4">
<path d="M .006000001 0 L .477 0 L .477 .11100001 L .14500001 .11100001 C .14800002 .245 .46600003 .284 .46600003 .512 C .46600003 .646 .36 .72200009 .23500003 .72200009 C .065 .72200009 0 .58000007 0 .58000007 L .096000019 .51600006 C .096000019 .51600006 .14100002 .6 .22400002 .6 C .284 .6 .33200003 .563 .33200003 .50100007 C .33200003 .36 0 .319 0 .063 C 0 .043 .0030000024 .023000002 .006000001 0 Z "/>
</symbol>
<symbol id="font_0_5">
<path d="M .18100001 0 C .40100003 0 .508 .21100001 .508 .397 C .508 .61100009 .382 .7340001 .23400001 .7340001 C .09300001 .7340001 0 .62700006 0 .49600003 C 0 .368 .08700001 .25800003 .22700002 .25800003 C .278 .25800003 .336 .279 .361 .308 L .363 .308 C .345 .21100001 .285 .11800001 .17300001 .11800001 C .119 .11800001 .074 .141 .074 .141 L .036000004 .030000002 C .036000004 .030000002 .091000009 0 .18100001 0 M .25800003 .36400003 C .172 .36400003 .127 .42400003 .127 .49600003 C .127 .563 .16800002 .61500009 .23400001 .61500009 C .308 .61500009 .374 .53000006 .374 .441 C .374 .398 .322 .36400003 .25800003 .36400003 Z "/>
</symbol>
<symbol id="font_0_3">
<path d="M .011 0 L .44500003 0 L .44500003 .11100001 L .291 .11100001 L .291 .71000006 L .17800002 .71000006 L 0 .53900006 L .076000008 .45900003 L .13300002 .513 C .15600002 .536 .16400002 .55300006 .16400002 .55300006 L .16600001 .55300006 C .16600001 .55300006 .165 .52900007 .165 .505 L .165 .11100001 L .011 .11100001 L .011 0 Z "/>
</symbol>
<symbol id="font_0_25">
<path d="M .156 0 L .298 0 L .38400004 .291 C .39200003 .31800003 .39600004 .34600003 .39600004 .34600003 L .39800004 .34600003 C .39800004 .34600003 .40300004 .31800003 .411 .291 L .49700005 0 L .638 0 L .79300007 .51000007 L .661 .51000007 L .572 .17500001 C .56500008 .148 .56100007 .12100001 .56100007 .12100001 L .559 .12100001 C .559 .12100001 .555 .148 .54800006 .17500001 L .45400004 .509 L .34100003 .509 L .24700001 .17500001 C .24000001 .148 .23500002 .12100001 .23500002 .12100001 L .23300001 .12100001 C .23300001 .12100001 .23000002 .148 .22300002 .17500001 L .134 .51000007 L 0 .51000007 L .156 0 Z "/>
</symbol>
<symbol id="font_0_13">
<path d="M .236 0 L .365 0 L .365 .29700003 L .6010001 .71000006 L .455 .71000006 L .345 .50100007 C .322 .45700003 .30200003 .40600003 .30200003 .40600003 L .3 .40600003 C .29900003 .40500004 .28 .45700003 .257 .50100007 L .146 .71000006 L 0 .71000006 L .236 .29700003 L .236 0 Z "/>
</symbol>
<symbol id="font_0_26">
<path d="M .009000001 .033000009 C .009000001 .033000009 .054000006 0 .11500001 0 C .19200002 0 .263 .040000008 .299 .133 L .52700009 .72 L .388 .72 L .288 .42400003 C .279 .397 .271 .357 .271 .357 L .269 .357 C .269 .357 .26 .39900003 .25 .426 L .143 .72 L 0 .72 L .21500002 .21800001 L .19600001 .17300001 C .17700002 .128 .143 .107 .108 .107 C .079 .107 .051000004 .128 .051000004 .128 L .009000001 .033000009 Z "/>
</symbol>
<use xlink:href="#font_0_4" transform="matrix(0,-35.0885,-35.0885,-0,48.9746,763.5171)" fill="#36291f"/>
<use xlink:href="#font_0_1" transform="matrix(0,-35.0885,-35.0885,-0,48.9746,744.92019)" fill="#36291f"/>
<use xlink:href="#font_0_a" transform="matrix(0,-35.0885,-35.0885,-0,48.9746,733.2357)" fill="#36291f"/>
<use xlink:href="#font_0_14" transform="matrix(0,-35.0885,-35.0885,-0,49.395666,715.2704)" fill="#36291f"/>
<use xlink:href="#font_0_22" transform="matrix(0,-35.0885,-35.0885,-0,49.395666,696.53317)" fill="#36291f"/>
<use xlink:href="#font_0_23" transform="matrix(0,-35.0885,-35.0885,-0,49.150045,680.7082)" fill="#36291f"/>
<use xlink:href="#font_0_1" transform="matrix(0,-35.0885,-35.0885,-0,48.9746,668.39218)" fill="#36291f"/>
<use xlink:href="#font_0_5" transform="matrix(0,-35.0885,-35.0885,-0,49.395666,658.3569)" fill="#36291f"/>
<use xlink:href="#font_0_3" transform="matrix(0,-35.0885,-35.0885,-0,48.9746,637.1634)" fill="#36291f"/>
<use xlink:href="#font_0_22" transform="matrix(0,-35.0885,-35.0885,-0,49.395666,619.7595)" fill="#36291f"/>
<use xlink:href="#font_0_23" transform="matrix(0,-35.0885,-35.0885,-0,49.150045,603.9346)" fill="#36291f"/>
<use xlink:href="#font_0_1" transform="matrix(0,-35.0885,-35.0885,-0,48.9746,591.6185)" fill="#36291f"/>
<use xlink:href="#font_0_11" transform="matrix(0,-35.0885,-35.0885,-0,49.395666,581.82888)" fill="#36291f"/>
<use xlink:href="#font_0_23" transform="matrix(0,-35.0885,-35.0885,-0,49.150045,562.74069)" fill="#36291f"/>
<use xlink:href="#font_0_21" transform="matrix(0,-35.0885,-35.0885,-0,48.9746,547.96847)" fill="#36291f"/>
<use xlink:href="#font_0_18" transform="matrix(0,-35.0885,-35.0885,-0,49.395666,535.44186)" fill="#36291f"/>
<use xlink:href="#font_0_18" transform="matrix(0,-35.0885,-35.0885,-0,49.395666,516.0028)" fill="#36291f"/>
<use xlink:href="#font_0_23" transform="matrix(0,-35.0885,-35.0885,-0,49.150045,496.84449)" fill="#36291f"/>
<use xlink:href="#font_0_f" transform="matrix(0,-35.0885,-35.0885,-0,91.0808,762.1135)" fill="#36291f"/>
<use xlink:href="#font_0_18" transform="matrix(0,-35.0885,-35.0885,-0,91.50186,737.41128)" fill="#36291f"/>
<use xlink:href="#font_0_25" transform="matrix(0,-35.0885,-35.0885,-0,91.0808,718.674)" fill="#36291f"/>
<use xlink:href="#font_0_1" transform="matrix(0,-35.0885,-35.0885,-0,91.0808,690.35757)" fill="#36291f"/>
<use xlink:href="#font_0_13" transform="matrix(0,-35.0885,-35.0885,-0,91.0808,681.76089)" fill="#36291f"/>
<use xlink:href="#font_0_20" transform="matrix(0,-35.0885,-35.0885,-0,91.50186,661.44467)" fill="#36291f"/>
<use xlink:href="#font_0_21" transform="matrix(0,-35.0885,-35.0885,-0,91.0808,638.18099)" fill="#36291f"/>
<use xlink:href="#font_0_1c" transform="matrix(0,-35.0885,-35.0885,-0,91.0808,624.3912)" fill="#36291f"/>
<use xlink:href="#font_0_1" transform="matrix(0,-35.0885,-35.0885,-0,91.0808,607.4785)" fill="#36291f"/>
<use xlink:href="#font_0_8" transform="matrix(0,-35.0885,-35.0885,-0,91.50186,597.5134)" fill="#36291f"/>
<use xlink:href="#font_0_1b" transform="matrix(0,-35.0885,-35.0885,-0,91.0808,571.37246)" fill="#36291f"/>
<use xlink:href="#font_0_23" transform="matrix(0,-35.0885,-35.0885,-0,91.25625,563.54769)" fill="#36291f"/>
<use xlink:href="#font_0_26" transform="matrix(0,-35.0885,-35.0885,-0,98.44939,551.5123)" fill="#36291f"/>
<use xlink:href="#font_0_f" transform="matrix(93.5001,0,0,-92.724,121.382808,592.3506)" fill="#ee8322"/>
<use xlink:href="#font_0_14" transform="matrix(93.5001,0,0,-92.724,186.55239,593.46328)" fill="#ee8322"/>
<use xlink:href="#font_0_23" transform="matrix(93.5001,0,0,-92.724,236.10744,592.8142)" fill="#ee8322"/>
<use xlink:href="#font_0_1b" transform="matrix(93.5001,0,0,-92.724,275.47099,592.3506)" fill="#ee8322"/>
<use xlink:href="#font_0_20" transform="matrix(93.5001,0,0,-92.724,296.8825,593.46328)" fill="#ee8322"/>
<use xlink:href="#font_0_1f" transform="matrix(93.5001,0,0,-92.724,358.87309,592.3506)" fill="#ee8322"/>
<use xlink:href="#font_0_14" transform="matrix(93.5001,0,0,-92.724,412.16813,593.46328)" fill="#ee8322"/>
<use xlink:href="#font_0_1d" transform="matrix(93.5001,0,0,-92.724,465.46318,592.8142)" fill="#ee8322"/>
<use xlink:href="#font_0_1" transform="matrix(93.5001,0,0,-92.724,486.12669,592.3506)" fill="#ee8322"/>
<use xlink:href="#font_0_9" transform="matrix(93.5001,0,0,-92.724,517.2622,592.3506)" fill="#ee8322"/>
<use xlink:href="#font_0_18" transform="matrix(93.5001,0,0,-92.724,581.1228,593.46328)" fill="#ee8322"/>
<use xlink:href="#font_0_22" transform="matrix(93.5001,0,0,-92.724,632.26736,593.46328)" fill="#ee8322"/>
<use xlink:href="#font_0_1b" transform="matrix(93.5001,0,0,-92.724,678.54989,592.3506)" fill="#ee8322"/>
<use xlink:href="#font_0_19" transform="matrix(93.5001,0,0,-92.724,700.33547,611.82266)" fill="#ee8322"/>
<use xlink:href="#font_0_1f" transform="matrix(93.5001,0,0,-92.724,759.98849,592.3506)" fill="#ee8322"/>
<use xlink:href="#font_0_1" transform="matrix(93.5001,0,0,-92.724,810.75906,592.3506)" fill="#ee8322"/>
<use xlink:href="#font_0_e" transform="matrix(93.5001,0,0,-92.724,839.8376,592.3506)" fill="#ee8322"/>
<use xlink:href="#font_0_24" transform="matrix(93.5001,0,0,-92.724,921.46316,593.46328)" fill="#ee8322"/>
<use xlink:href="#font_0_22" transform="matrix(93.5001,0,0,-92.724,975.0387,593.46328)" fill="#ee8322"/>
<use xlink:href="#font_0_18" transform="matrix(93.5001,0,0,-92.724,1017.95529,593.46328)" fill="#ee8322"/>
<use xlink:href="#font_0_24" transform="matrix(93.5001,0,0,-92.724,1072.4658,593.46328)" fill="#ee8322"/>
<use xlink:href="#font_0_1e" transform="matrix(93.5001,0,0,-92.724,1130.0619,592.3506)" fill="#ee8322"/>
<use xlink:href="#font_0_f" transform="matrix(93.5001,0,0,-92.724,121.382808,634.63278)" fill="#dd1a5c"/>
<use xlink:href="#font_0_14" transform="matrix(93.5001,0,0,-92.724,186.55239,635.7454)" fill="#dd1a5c"/>
<use xlink:href="#font_0_23" transform="matrix(93.5001,0,0,-92.724,236.10744,635.0964)" fill="#dd1a5c"/>
<use xlink:href="#font_0_1b" transform="matrix(93.5001,0,0,-92.724,275.47099,634.63278)" fill="#dd1a5c"/>
<use xlink:href="#font_0_20" transform="matrix(93.5001,0,0,-92.724,296.8825,635.7454)" fill="#dd1a5c"/>
<use xlink:href="#font_0_1f" transform="matrix(93.5001,0,0,-92.724,358.87309,634.63278)" fill="#dd1a5c"/>
<use xlink:href="#font_0_14" transform="matrix(93.5001,0,0,-92.724,412.16813,635.7454)" fill="#dd1a5c"/>
<use xlink:href="#font_0_1d" transform="matrix(93.5001,0,0,-92.724,465.46318,635.0964)" fill="#dd1a5c"/>
<use xlink:href="#font_0_1" transform="matrix(93.5001,0,0,-92.724,486.12669,634.63278)" fill="#dd1a5c"/>
<use xlink:href="#font_0_9" transform="matrix(93.5001,0,0,-92.724,517.2622,634.63278)" fill="#dd1a5c"/>
<use xlink:href="#font_0_18" transform="matrix(93.5001,0,0,-92.724,581.1228,635.7454)" fill="#dd1a5c"/>
<use xlink:href="#font_0_22" transform="matrix(93.5001,0,0,-92.724,632.26736,635.7454)" fill="#dd1a5c"/>
<use xlink:href="#font_0_1b" transform="matrix(93.5001,0,0,-92.724,678.54989,634.63278)" fill="#dd1a5c"/>
<use xlink:href="#font_0_19" transform="matrix(93.5001,0,0,-92.724,700.33547,654.1048)" fill="#dd1a5c"/>
<use xlink:href="#font_0_1f" transform="matrix(93.5001,0,0,-92.724,759.98849,634.63278)" fill="#dd1a5c"/>
<use xlink:href="#font_0_1" transform="matrix(93.5001,0,0,-92.724,810.75906,634.63278)" fill="#dd1a5c"/>
<use xlink:href="#font_0_e" transform="matrix(93.5001,0,0,-92.724,839.8376,634.63278)" fill="#dd1a5c"/>
<use xlink:href="#font_0_24" transform="matrix(93.5001,0,0,-92.724,921.46316,635.7454)" fill="#dd1a5c"/>
<use xlink:href="#font_0_22" transform="matrix(93.5001,0,0,-92.724,975.0387,635.7454)" fill="#dd1a5c"/>
<use xlink:href="#font_0_18" transform="matrix(93.5001,0,0,-92.724,1017.95529,635.7454)" fill="#dd1a5c"/>
<use xlink:href="#font_0_24" transform="matrix(93.5001,0,0,-92.724,1072.4658,635.7454)" fill="#dd1a5c"/>
<use xlink:href="#font_0_1e" transform="matrix(93.5001,0,0,-92.724,1130.0619,634.63278)" fill="#dd1a5c"/>
<clipPath id="cp4">
<path transform="matrix(1,0,0,-1,0,792)" d="M 0 792 L 1224 792 L 1224 0 L 0 0 Z "/>
</clipPath>
<g clip-path="url(#cp4)">
<path transform="matrix(1,0,0,-1,0,792)" d="M 1224.546 318.658 L 835.52 318.658 L 835.52 330.581 L 1224.546 330.581 Z " fill="#ffffff"/>
</g>
</g>
</g>
</svg>
